<svg xmlns="http://www.w3.org/2000/svg" xmlns:xlink="http://www.w3.org/1999/xlink" viewBox="0 0 428 281.11"><defs><clipPath id="a"><polygon points="392.18 15.38 392.5 179.93 251.55 158.05 247.91 1.1 392.18 15.38" style="fill:none"/></clipPath><clipPath id="b"><polygon points="270.2 60.72 273.87 243.39 123.57 215.68 116.16 42.32 270.2 60.72" style="fill:none"/></clipPath><clipPath id="c"><polygon points="270.2 60.72 392.18 15.38 392.5 179.93 273.87 243.39 270.2 60.72" style="fill:none"/></clipPath><clipPath id="d"><polygon points="273.87 243.39 123.57 215.68 251.55 158.05 392.5 179.93 273.87 243.39" style="fill:none"/></clipPath><clipPath id="e"><polygon points="123.57 215.68 116.16 42.32 247.91 1.1 251.55 158.05 123.57 215.68" style="fill:none"/></clipPath><clipPath id="f"><polygon points="116.16 42.32 247.91 1.1 392.18 15.38 270.2 60.72 116.16 42.32" style="fill:none"/></clipPath><clipPath id="g"><path d="M247.16.17,393,14.56l.31,166.35L250.85,158.76ZM392.5,179.93l-.32-164.55L247.91,1.1l3.64,157,141,21.88" style="fill:none"/></clipPath><clipPath id="h"><path d="M115.34,41.28,271.05,59.82l3.68,184.68L122.85,216.44ZM273.87,243.39,270.2,60.72l-154-18.4,7.41,173.36,150.3,27.71" style="fill:none"/></clipPath><clipPath id="i"><polygon points="115.34 41.28 247.16 0.17 392.99 14.56 271.05 59.82 115.34 41.28" style="fill:none"/></clipPath><clipPath id="j"><polygon points="271.05 59.82 392.99 14.56 393.3 180.91 274.73 244.5 271.05 59.82" style="fill:none"/></clipPath><clipPath id="k"><polygon points="274.73 244.5 122.85 216.44 250.85 158.76 393.3 180.91 274.73 244.5" style="fill:none"/></clipPath><clipPath id="l"><polygon points="122.85 216.44 115.34 41.28 247.16 0.17 250.85 158.76 122.85 216.44" style="fill:none"/></clipPath><clipPath id="m"><polygon points="273.87 243.39 270.2 60.72 392.18 15.38 392.5 179.93 273.87 243.39" style="fill:none"/></clipPath><clipPath id="n"><polygon points="270.2 60.72 116.16 42.32 247.91 1.1 392.18 15.38 270.2 60.72" style="fill:none"/></clipPath><clipPath id="o"><polygon points="116.16 42.32 247.91 1.1 251.55 158.05 123.57 215.68 116.16 42.32" style="fill:none"/></clipPath><clipPath id="p"><polygon points="123.57 215.68 251.55 158.05 392.5 179.93 273.87 243.39 123.57 215.68" style="fill:none"/></clipPath><clipPath id="q"><path d="M221,169.64,210.3,172a15.55,15.55,0,0,1-3.94.32L217,170A16,16,0,0,0,221,169.64Z" style="fill:none"/></clipPath><clipPath id="r"><path d="M221.62,172.57,211,174.92a18.35,18.35,0,0,1-4.6.37L217,172.94A17.93,17.93,0,0,0,221.62,172.57Z" style="fill:none"/></clipPath><clipPath id="s"><path d="M233.68,177.25,223,179.6a54.35,54.35,0,0,1-13.69,1.06L220,178.31A54.27,54.27,0,0,0,233.68,177.25Z" style="fill:none"/></clipPath><clipPath id="t"><path d="M221.62,172.57,211,174.92c4.62-1,8-4,10.08-9,2.6-6.16,3.87-17,3.88-33S223.7,106,221.15,99.65c-2.69-6.65-7.64-10.16-14.71-10.43l10.67-2.34c7.07.27,12,3.77,14.7,10.42,2.56,6.34,3.79,17.22,3.77,33.28s-1.28,26.87-3.88,33C229.62,168.55,226.24,171.55,221.62,172.57Z" style="fill:none"/></clipPath><clipPath id="u"><path d="M257.22,106l-10.67,2.35C241,92.8,229.19,84.85,210.92,84.14l10.67-2.34C239.86,82.5,251.66,90.46,257.22,106Z" style="fill:none"/></clipPath><clipPath id="v"><path d="M261,131.71c0,26.5-9,41.52-27.29,45.54L223,179.6c18.3-4,27.26-19,27.29-45.55q0-15.23-3.76-25.74L257.22,106Q261,116.51,261,131.71Z" style="fill:none"/></clipPath><clipPath id="w"><path d="M234.23,180.18l-10.67,2.35c19.58-4.31,29.5-20.52,29.53-48.37,0-34.09-14.15-51.93-42.17-53l10.67-2.35c28,1.08,42.2,18.92,42.17,53C263.73,159.67,253.81,175.88,234.23,180.18Z" style="fill:none"/></clipPath></defs><title>medida4</title><g style="isolation:isolate"><g style="isolation:isolate"><g style="clip-path:url(#a)"><polygon points="392.18 15.38 392.5 179.93 251.55 158.05 247.91 1.1 392.18 15.38" style="fill:none;stroke:#000;stroke-miterlimit:10;stroke-width:0.25px"/></g></g><g style="isolation:isolate"><g style="clip-path:url(#b)"><polygon points="270.2 60.72 273.87 243.39 123.57 215.68 116.16 42.32 270.2 60.72" style="fill:none;stroke:#000;stroke-miterlimit:10;stroke-width:0.25px"/></g></g><g style="isolation:isolate"><g style="clip-path:url(#c)"><polygon points="270.2 60.72 392.18 15.38 392.5 179.93 273.87 243.39 270.2 60.72" style="fill:none;stroke:#000;stroke-miterlimit:10;stroke-width:0.25px"/></g></g><g style="isolation:isolate"><g style="clip-path:url(#d)"><polygon points="273.87 243.39 123.57 215.68 251.55 158.05 392.5 179.93 273.87 243.39" style="fill:none;stroke:#000;stroke-miterlimit:10;stroke-width:0.25px"/></g></g><g style="isolation:isolate"><g style="clip-path:url(#e)"><polygon points="123.57 215.68 116.16 42.32 247.91 1.1 251.55 158.05 123.57 215.68" style="fill:none;stroke:#000;stroke-miterlimit:10;stroke-width:0.25px"/></g></g><g style="isolation:isolate"><g style="clip-path:url(#f)"><polygon points="116.16 42.32 247.91 1.1 392.18 15.38 270.2 60.72 116.16 42.32" style="fill:none;stroke:#000;stroke-miterlimit:10;stroke-width:0.25px"/></g></g><g style="isolation:isolate"><g style="clip-path:url(#g)"><path d="M247.16.17,393,14.56l.31,166.35L250.85,158.76ZM392.5,179.93l-.32-164.55L247.91,1.1l3.64,157,141,21.88" style="fill:none;stroke:#000;stroke-miterlimit:10;stroke-width:0.25px"/></g></g><g style="isolation:isolate"><g style="clip-path:url(#h)"><path d="M115.34,41.28,271.05,59.82l3.68,184.68L122.85,216.44ZM273.87,243.39,270.2,60.72l-154-18.4,7.41,173.36,150.3,27.71" style="fill:none;stroke:#000;stroke-miterlimit:10;stroke-width:0.25px"/></g></g><g style="isolation:isolate"><g style="clip-path:url(#i)"><polygon points="115.34 41.28 247.16 0.17 392.99 14.56 271.05 59.82 115.34 41.28" style="fill:none;stroke:#000;stroke-miterlimit:10;stroke-width:0.25px"/></g></g><g style="isolation:isolate"><g style="clip-path:url(#j)"><polygon points="271.05 59.82 392.99 14.56 393.3 180.91 274.73 244.5 271.05 59.82" style="fill:none;stroke:#000;stroke-miterlimit:10;stroke-width:0.25px"/></g></g><g style="isolation:isolate"><g style="clip-path:url(#k)"><polygon points="274.73 244.5 122.85 216.44 250.85 158.76 393.3 180.91 274.73 244.5" style="fill:none;stroke:#000;stroke-miterlimit:10;stroke-width:0.25px"/></g></g><g style="isolation:isolate"><g style="clip-path:url(#l)"><polygon points="122.85 216.44 115.34 41.28 247.16 0.17 250.85 158.76 122.85 216.44" style="fill:none;stroke:#000;stroke-miterlimit:10;stroke-width:0.25px"/></g></g><g style="isolation:isolate"><g style="clip-path:url(#m)"><polygon points="273.87 243.39 270.2 60.72 392.18 15.38 392.5 179.93 273.87 243.39" style="fill:none;stroke:#000;stroke-miterlimit:10;stroke-width:0.25px"/></g></g><g style="isolation:isolate"><g style="clip-path:url(#n)"><polygon points="270.2 60.72 116.16 42.32 247.91 1.1 392.18 15.38 270.2 60.72" style="fill:none;stroke:#000;stroke-miterlimit:10;stroke-width:0.25px"/></g></g><g style="isolation:isolate"><g style="clip-path:url(#o)"><polygon points="116.16 42.32 247.91 1.1 251.55 158.05 123.57 215.68 116.16 42.32" style="fill:none;stroke:#000;stroke-miterlimit:10;stroke-width:0.25px"/></g></g><g style="isolation:isolate"><g style="clip-path:url(#p)"><polygon points="123.57 215.68 251.55 158.05 392.5 179.93 273.87 243.39 123.57 215.68" style="fill:none;stroke:#000;stroke-miterlimit:10;stroke-width:0.25px"/></g></g></g><line x1="282" y1="263.95" x2="401" y2="193.95" style="fill:none;stroke:#000"/><line x1="104" y1="214.95" x2="97" y2="46.95" style="fill:none;stroke:#000"/><line x1="111" y1="228.95" x2="271" y2="259.95" style="fill:none;stroke:#000"/><text transform="translate(133 275.86)" style="font-size:21px;font-family:MyriadPro-Regular, Myriad Pro">1.80 <tspan x="41.12" y="0" style="letter-spacing:-0.003999255952380952em">m</tspan><tspan x="58.55" y="0">t</tspan><tspan x="65.5" y="0" style="letter-spacing:-0.01097470238095238em">s</tspan><tspan x="73.58" y="0">.</tspan></text><text transform="translate(0 128.86)" style="font-size:21px;font-family:MyriadPro-Regular, Myriad Pro">2.40 <tspan x="41.12" y="0" style="letter-spacing:-0.003999255952380952em">m</tspan><tspan x="58.55" y="0">t</tspan><tspan x="65.5" y="0" style="letter-spacing:-0.01097470238095238em">s</tspan><tspan x="73.58" y="0">.</tspan></text><text transform="translate(347 249.36)" style="font-size:21px;font-family:MyriadPro-Regular, Myriad Pro">3.00 <tspan x="41.12" y="0" style="letter-spacing:-0.003999255952380952em">m</tspan><tspan x="58.55" y="0">t</tspan><tspan x="65.5" y="0" style="letter-spacing:-0.01097470238095238em">s</tspan><tspan x="73.58" y="0">.</tspan></text><g style="isolation:isolate"><polygon points="173.97 82.72 184.64 80.37 184.54 176.94 173.87 179.29 173.97 82.72" style="fill:#57adcb"/><polygon points="197.92 174.96 208.59 172.62 217.02 172.94 206.35 175.29 197.92 174.96" style="fill:#8c8616"/><polygon points="198.01 88.9 208.68 86.55 208.59 172.62 197.92 174.96 198.01 88.9" style="fill:#bab21d"/><polygon points="200.7 172.08 211.37 169.73 217.02 169.95 206.36 172.3 200.7 172.08" style="fill:#418299"/><polygon points="173.87 179.29 184.54 176.94 219.99 178.31 209.33 180.66 173.87 179.29" style="fill:#418299"/><g style="isolation:isolate"><g style="clip-path:url(#q)"><g style="isolation:isolate"><path d="M206.36,172.3,217,170h.3l-10.66,2.34h-.3" style="fill:#418299"/><path d="M206.66,172.3,217.32,170c.5,0,1,0,1.46,0l-10.67,2.35a14,14,0,0,1-1.45,0" style="fill:#3f7e94"/><path d="M208.11,172.28l10.67-2.35a12.32,12.32,0,0,0,1.39-.15l-10.66,2.35c-.46.07-.92.12-1.4.15" style="fill:#3d7a8f"/><path d="M209.51,172.13l10.66-2.35.79-.14L210.3,172c-.26.06-.53.11-.79.15" style="fill:#3b758a"/></g></g></g><g style="isolation:isolate"><g style="clip-path:url(#r)"><g style="isolation:isolate"><path d="M206.35,175.29,217,172.94h.34l-10.67,2.35h-.34" style="fill:#8c8616"/><path d="M206.69,175.3,217.36,173a15.42,15.42,0,0,0,1.67,0l-10.67,2.35c-.54,0-1.1,0-1.67,0" style="fill:#888215"/><path d="M208.36,175.27,219,172.92c.56,0,1.11-.09,1.65-.17L210,175.09a14.87,14.87,0,0,1-1.65.18" style="fill:#837d14"/><path d="M210,175.09l10.67-2.34c.32-.05.63-.11.94-.18L211,174.92l-.94.17" style="fill:#7e7913"/></g></g></g><polygon points="200.78 91.99 211.45 89.64 211.37 169.73 200.7 172.08 200.78 91.99" style="fill:#57adcb"/><g style="isolation:isolate"><g style="clip-path:url(#s)"><g style="isolation:isolate"><path d="M209.33,180.66,220,178.31l1.09,0-10.67,2.35-1.08,0" style="fill:#418299"/><path d="M210.41,180.69l10.67-2.35c1.79,0,3.51,0,5.18-.08l-10.67,2.34c-1.67.1-3.39.13-5.18.09" style="fill:#3f7e94"/><path d="M215.59,180.6l10.67-2.34q2.49-.15,4.8-.51l-10.67,2.34q-2.31.36-4.8.51" style="fill:#3d7a8f"/><path d="M220.39,180.09l10.67-2.34c.89-.14,1.77-.31,2.62-.5L223,179.6c-.86.19-1.74.35-2.63.49" style="fill:#3b758a"/></g></g></g><polygon points="198.01 88.9 208.68 86.55 217.11 86.88 206.44 89.22 198.01 88.9" style="fill:#418299"/><polygon points="173.97 82.72 184.64 80.37 221.59 81.8 210.92 84.14 173.97 82.72" style="fill:#8c8616"/><polygon points="171.21 79.61 181.87 77.27 221.59 78.8 210.92 81.15 171.21 79.61" style="fill:#418299"/><g style="isolation:isolate"><g style="clip-path:url(#t)"><g style="isolation:isolate"><path d="M206.44,89.22l10.67-2.34c.44,0,.87,0,1.29.08l-10.67,2.35q-.63-.06-1.29-.09" style="fill:#418299"/><path d="M207.73,89.31,218.4,87c.47.05.92.11,1.37.19L209.1,89.49c-.44-.07-.9-.13-1.37-.18" style="fill:#44879e"/><path d="M209.1,89.49l10.67-2.34q.61.1,1.2.24L210.3,89.74c-.39-.09-.79-.18-1.2-.25" style="fill:#468ba3"/><path d="M210.3,89.74,221,87.39c.36.09.72.19,1.07.3L211.37,90c-.35-.11-.71-.21-1.07-.3" style="fill:#488fa8"/><path d="M211.37,90,222,87.69c.33.11.66.22,1,.35l-10.67,2.34c-.32-.12-.65-.24-1-.34" style="fill:#4a94ad"/><path d="M212.35,90.38,223,88c.31.12.62.25.92.39l-10.67,2.35-.92-.4" style="fill:#4c98b3"/><path d="M213.27,90.78l10.67-2.35c.3.15.6.3.89.46l-10.67,2.35c-.29-.16-.59-.32-.89-.46" style="fill:#4e9cb8"/><path d="M214.16,91.24l10.67-2.35c.3.17.59.35.88.54L215,91.78c-.28-.19-.58-.37-.88-.54" style="fill:#51a1bd"/><path d="M215,91.78l10.67-2.35c.31.21.62.42.91.65L216,92.43a10,10,0,0,0-.91-.65" style="fill:#53a5c2"/><path d="M216,92.43l10.67-2.35c.35.27.68.56,1,.86L217,93.28c-.32-.3-.65-.58-1-.85" style="fill:#55a9c7"/><path d="M217,93.28l10.67-2.34a14.42,14.42,0,0,1,1.25,1.33L218.2,94.61A15.73,15.73,0,0,0,217,93.28" style="fill:#57aecc"/><path d="M218.2,94.61l10.67-2.34a18.51,18.51,0,0,1,2.94,5c.24.58.46,1.2.67,1.86l-10.66,2.35c-.22-.66-.44-1.28-.67-1.86a19,19,0,0,0-3-5" style="fill:#59b2d1"/><path d="M221.82,101.51l10.66-2.35A41.67,41.67,0,0,1,233.7,104L223,106.32a46,46,0,0,0-1.22-4.81" style="fill:#57aecc"/><path d="M223,106.32,233.7,104c.4,2,.72,4.15,1,6.58L224,112.9q-.39-3.63-1-6.58" style="fill:#55a9c7"/><path d="M224,112.9l10.67-2.34q.52,4.72.74,10.65l-10.67,2.35c-.14-4-.39-7.5-.74-10.66" style="fill:#53a5c2"/><path d="M224.76,123.56l10.67-2.35c.1,2.9.15,6,.15,9.37,0,2.72,0,5.28-.11,7.7l-10.67,2.34c.07-2.41.11-5,.11-7.69q0-5-.15-9.37" style="fill:#51a1bd"/><path d="M224.8,140.62l10.67-2.34q-.18,5.57-.61,10.11l-10.66,2.35q.42-4.55.6-10.12" style="fill:#4e9cb8"/><path d="M224.2,150.74l10.66-2.35c-.19,2.06-.43,4-.7,5.72l-10.67,2.35c.28-1.76.51-3.66.71-5.72" style="fill:#4c98b3"/><path d="M223.49,156.46l10.67-2.35c-.21,1.3-.43,2.52-.68,3.66l-10.67,2.35c.25-1.14.48-2.36.68-3.66" style="fill:#4a94ad"/><path d="M222.81,160.12l10.67-2.35c-.2.91-.42,1.77-.65,2.57l-10.67,2.35c.23-.8.45-1.66.65-2.57" style="fill:#488fa8"/><path d="M222.16,162.69l10.67-2.35c-.19.68-.39,1.31-.6,1.91l-10.67,2.35c.21-.6.41-1.24.6-1.91" style="fill:#468ba3"/><path d="M221.56,164.6l10.67-2.35c-.17.48-.35.93-.53,1.36l-.06.14L221,166.1,221,166c.18-.43.36-.88.53-1.36" style="fill:#44879e"/><path d="M221,166.1l10.67-2.35c-.19.45-.39.87-.6,1.29l-10.67,2.34c.21-.41.41-.84.6-1.28" style="fill:#418299"/><path d="M220.37,167.38,231,165c-.22.41-.44.82-.68,1.2l-10.67,2.35c.24-.39.47-.79.68-1.21" style="fill:#3f7e94"/><path d="M219.69,168.59l10.67-2.35q-.39.63-.81,1.2l-10.67,2.35q.42-.57.81-1.2" style="fill:#3d7a8f"/><path d="M218.88,169.79l10.67-2.35a14.55,14.55,0,0,1-1.06,1.27l-10.66,2.34a13,13,0,0,0,1-1.26" style="fill:#3b758a"/><path d="M217.83,171.05l10.66-2.34a13,13,0,0,1-6.87,3.86L211,174.92a13.05,13.05,0,0,0,6.88-3.87" style="fill:#397185"/></g></g></g><g style="isolation:isolate"><g style="clip-path:url(#u)"><g style="isolation:isolate"><path d="M210.92,84.14l10.67-2.34c1.27,0,2.52.13,3.73.25L214.65,84.4c-1.21-.12-2.45-.21-3.73-.26" style="fill:#8c8616"/><path d="M214.65,84.4l10.67-2.35c1.31.13,2.59.3,3.82.51l-10.66,2.35c-1.24-.21-2.52-.38-3.83-.51" style="fill:#918b16"/><path d="M218.48,84.91l10.66-2.35c1.08.19,2.14.41,3.16.66l-10.67,2.34c-1-.25-2.07-.46-3.15-.65" style="fill:#968f17"/><path d="M221.63,85.56l10.67-2.34c.93.22,1.84.48,2.73.75l-10.67,2.35c-.89-.28-1.8-.53-2.73-.76" style="fill:#9a9418"/><path d="M224.36,86.32,235,84c.83.27,1.65.55,2.44.86L226.8,87.18c-.79-.31-1.61-.6-2.44-.86" style="fill:#9f9818"/><path d="M226.8,87.18l10.67-2.35c.77.3,1.52.63,2.24,1l-10.66,2.34q-1.1-.51-2.25-1" style="fill:#a49d19"/><path d="M229.05,88.14l10.66-2.34c.72.34,1.42.69,2.1,1.07l-10.67,2.35c-.68-.38-1.38-.74-2.09-1.08" style="fill:#a8a11a"/><path d="M231.14,89.22l10.67-2.35c.7.4,1.38.81,2,1.24l-10.67,2.35c-.66-.44-1.34-.85-2-1.24" style="fill:#ada61b"/><path d="M233.18,90.46l10.67-2.35c.71.47,1.4,1,2.06,1.49l-10.67,2.34c-.66-.52-1.35-1-2.06-1.48" style="fill:#b2aa1b"/><path d="M235.24,91.94l10.67-2.34c.76.59,1.49,1.22,2.2,1.89l-10.67,2.34c-.7-.66-1.44-1.29-2.2-1.89" style="fill:#b7af1c"/><path d="M237.44,93.83l10.67-2.34a33.81,33.81,0,0,1,2.65,2.82l-10.67,2.35a32.35,32.35,0,0,0-2.65-2.83" style="fill:#bbb31d"/><path d="M240.09,96.66l10.67-2.35a39.31,39.31,0,0,1,7,13.15l-10.67,2.35a39.31,39.31,0,0,0-7-13.15" style="fill:#c0b81e"/></g></g></g><g style="isolation:isolate"><g style="clip-path:url(#v)"><g style="isolation:isolate"><path d="M240.09,96.66l10.67-2.35a39.31,39.31,0,0,1,7,13.15l-10.67,2.35a39.31,39.31,0,0,0-7-13.15" style="fill:#c0b81e"/><path d="M247.06,109.81l10.67-2.35a57.57,57.57,0,0,1,1.7,6.59l-10.67,2.34a57.39,57.39,0,0,0-1.7-6.58" style="fill:#bbb31d"/><path d="M248.76,116.39l10.67-2.34c.4,2,.73,4.14,1,6.36l-10.67,2.35c-.24-2.22-.57-4.34-1-6.37" style="fill:#b7af1c"/><path d="M249.73,122.76l10.67-2.35c.25,2.24.42,4.57.5,7l-10.66,2.34c-.09-2.43-.26-4.77-.51-7" style="fill:#b2aa1b"/><path d="M250.24,129.76l10.66-2.34c.05,1.39.08,2.82.08,4.29,0,1.1,0,2.18-.05,3.25l-10.67,2.35c0-1.07.05-2.15.05-3.26,0-1.46,0-2.89-.07-4.29" style="fill:#ada61b"/><path d="M250.26,137.31,260.93,135c-.07,2.09-.19,4.11-.37,6l-10.67,2.35c.18-1.94.31-3.95.37-6" style="fill:#a8a11a"/><path d="M249.89,143.35,260.56,141c-.16,1.62-.35,3.18-.59,4.69L249.3,148c.24-1.5.44-3.07.59-4.68" style="fill:#a49d19"/><path d="M249.3,148,260,145.69c-.21,1.33-.45,2.63-.72,3.88l-10.67,2.35c.27-1.25.52-2.55.72-3.89" style="fill:#9f9818"/><path d="M248.58,151.92l10.67-2.35c-.26,1.15-.53,2.25-.84,3.33l-10.67,2.34c.31-1.07.59-2.18.84-3.32" style="fill:#9a9418"/><path d="M247.74,155.24l10.67-2.34c-.28,1-.59,2-.92,2.9l-10.67,2.34c.33-.93.64-1.9.92-2.9" style="fill:#968f17"/><path d="M246.82,158.14l10.67-2.34c-.32.91-.67,1.79-1,2.64l-10.67,2.34c.36-.85.71-1.73,1-2.64" style="fill:#918b16"/><path d="M245.79,160.78l10.67-2.34c-.37.85-.75,1.67-1.16,2.47l-10.67,2.34c.41-.79.79-1.62,1.16-2.47" style="fill:#8c8616"/><path d="M244.63,163.25l10.67-2.34c-.43.82-.87,1.61-1.34,2.37l-10.67,2.35c.47-.76.92-1.56,1.34-2.38" style="fill:#888215"/><path d="M243.29,165.63,254,163.28c-.51.83-1.05,1.63-1.62,2.39L241.67,168c.57-.76,1.11-1.55,1.62-2.38" style="fill:#837d14"/><path d="M241.67,168l10.67-2.34a30.17,30.17,0,0,1-2.23,2.66l-10.67,2.34a28.79,28.79,0,0,0,2.23-2.66" style="fill:#7e7913"/><path d="M239.44,170.67l10.67-2.34a31.08,31.08,0,0,1-16.43,8.92L223,179.6a31.06,31.06,0,0,0,16.42-8.93" style="fill:#7a7413"/></g></g></g><path d="M210.92,84.14c26.54,1,39.42,17.35,39.39,49.91s-13.44,47.67-41,46.61l-35.46-1.37.1-96.57ZM221,166c2.6-6.16,3.87-17,3.88-33S223.7,106,221.15,99.65c-2.69-6.65-7.64-10.16-14.71-10.43L198,88.9l-.1,86.06,8.43.33c7,.27,12-2.87,14.68-9.33" style="fill:#aea71b"/><path d="M210.92,81.15c28,1.08,42.2,18.92,42.17,53s-14.77,50.6-43.77,49.48l-38.22-1.47.11-102.55Zm-1.59,99.51c27.54,1.06,40.94-14.18,41-46.61s-12.85-48.88-39.39-49.91L174,82.72l-.1,96.57,35.46,1.37" style="fill:#51a1be"/><path d="M206.44,89.22c7.07.27,12,3.78,14.71,10.43,2.55,6.33,3.78,17.22,3.76,33.28s-1.28,26.87-3.88,33c-2.72,6.46-7.65,9.6-14.68,9.33l-8.43-.33L198,88.9Zm12.06,75.42c2.4-5.69,3.63-16.39,3.64-31.82s-1.17-26.21-3.53-32.06c-2.24-5.53-6.22-8.32-12.17-8.55L200.78,92l-.08,80.09,5.66.22c5.9.22,9.88-2.28,12.14-7.66" style="fill:#51a1be"/><g style="isolation:isolate"><g style="clip-path:url(#w)"><g style="isolation:isolate"><path d="M210.92,81.15l10.67-2.35c1.31,0,2.58.14,3.83.26l-10.67,2.35c-1.25-.12-2.52-.21-3.83-.26" style="fill:#418299"/><path d="M214.75,81.41l10.67-2.35c1.36.14,2.69.32,4,.54l-10.67,2.34c-1.29-.22-2.62-.4-4-.53" style="fill:#44879e"/><path d="M218.73,81.94,229.4,79.6c1.14.19,2.25.42,3.33.68l-10.67,2.35q-1.62-.39-3.33-.69" style="fill:#468ba3"/><path d="M222.06,82.63l10.67-2.35q1.49.38,2.91.81L225,83.44q-1.42-.45-2.91-.81" style="fill:#488fa8"/><path d="M225,83.44l10.67-2.35c.89.29,1.77.59,2.62.93l-10.67,2.34c-.85-.33-1.73-.64-2.62-.92" style="fill:#4a94ad"/><path d="M227.59,84.36,238.26,82c.83.32,1.63.67,2.42,1L230,85.4c-.78-.37-1.59-.71-2.42-1" style="fill:#4c98b3"/><path d="M230,85.4l10.67-2.34c.78.36,1.53.75,2.27,1.16l-10.67,2.35c-.73-.41-1.49-.8-2.27-1.17" style="fill:#4e9cb8"/><path d="M232.28,86.57,243,84.22c.76.43,1.5.88,2.23,1.36l-10.67,2.34c-.72-.47-1.46-.92-2.23-1.35" style="fill:#51a1bd"/><path d="M234.51,87.92l10.67-2.34c.77.51,1.52,1,2.25,1.61l-10.67,2.35q-1.09-.86-2.25-1.62" style="fill:#53a5c2"/><path d="M236.76,89.54l10.67-2.35c.83.66,1.63,1.34,2.4,2.07l-10.67,2.35q-1.16-1.1-2.4-2.07" style="fill:#55a9c7"/><path d="M239.16,91.61l10.67-2.35a36.91,36.91,0,0,1,2.9,3.09L242.06,94.7a34,34,0,0,0-2.9-3.09" style="fill:#57aecc"/><path d="M242.06,94.7l10.67-2.35a42.71,42.71,0,0,1,7.6,14.29L249.66,109a42.71,42.71,0,0,0-7.6-14.29" style="fill:#59b2d1"/><path d="M249.66,109l10.67-2.35a61.28,61.28,0,0,1,1.82,7L251.48,116a60.75,60.75,0,0,0-1.82-7" style="fill:#57aecc"/><path d="M251.48,116l10.67-2.35q.63,3.18,1,6.66l-10.67,2.34q-.39-3.47-1-6.65" style="fill:#55a9c7"/><path d="M252.5,122.68l10.67-2.34c.25,2.29.42,4.69.51,7.17L253,129.86q-.13-3.74-.51-7.18" style="fill:#53a5c2"/><path d="M253,129.86l10.67-2.35c.05,1.41.08,2.84.08,4.3,0,1.11,0,2.2-.05,3.26L253,137.42c0-1.07.05-2.15.05-3.26,0-1.46,0-2.9-.08-4.3" style="fill:#51a1bd"/><path d="M253,137.42l10.67-2.35c-.07,2.13-.19,4.18-.38,6.16l-10.67,2.35c.19-2,.31-4,.38-6.16" style="fill:#4e9cb8"/><path d="M252.66,143.58l10.67-2.35c-.16,1.69-.36,3.32-.61,4.89l-10.67,2.35c.25-1.58.45-3.21.61-4.89" style="fill:#4c98b3"/><path d="M252.05,148.47l10.67-2.35c-.22,1.41-.48,2.77-.77,4.09l-10.67,2.34c.29-1.32.55-2.68.77-4.08" style="fill:#4a94ad"/><path d="M251.28,152.55,262,150.21c-.26,1.2-.56,2.37-.88,3.51l-10.67,2.34c.32-1.13.62-2.3.88-3.51" style="fill:#488fa8"/><path d="M250.4,156.06l10.67-2.34c-.31,1.07-.64,2.11-1,3.11l-10.67,2.35q.54-1.52,1-3.12" style="fill:#468ba3"/><path d="M249.41,159.18l10.67-2.35c-.35,1-.72,1.93-1.11,2.86L248.3,162q.58-1.38,1.11-2.85" style="fill:#44879e"/><path d="M248.3,162,259,159.69q-.6,1.38-1.26,2.67L247,164.71c.44-.86.86-1.76,1.26-2.68" style="fill:#418299"/><path d="M247,164.71l10.67-2.35c-.46.89-.95,1.75-1.46,2.58l-10.67,2.35c.51-.83,1-1.69,1.46-2.58" style="fill:#3f7e94"/><path d="M245.58,167.29l10.67-2.35c-.55.91-1.14,1.78-1.76,2.61l-10.67,2.34c.62-.83,1.21-1.69,1.76-2.6" style="fill:#3d7a8f"/><path d="M243.82,169.89l10.67-2.34a31.39,31.39,0,0,1-2.45,2.91l-10.66,2.35a34.6,34.6,0,0,0,2.44-2.92" style="fill:#3b758a"/><path d="M241.38,172.81,252,170.46a33.68,33.68,0,0,1-17.81,9.72l-10.67,2.35a33.81,33.81,0,0,0,17.82-9.72" style="fill:#397185"/></g></g></g></g></svg>