<svg xmlns="http://www.w3.org/2000/svg" xmlns:xlink="http://www.w3.org/1999/xlink" viewBox="0 0 428 281.11"><defs><clipPath id="a"><polygon points="392.18 15.38 392.5 179.93 251.55 158.05 247.91 1.1 392.18 15.38" style="fill:none"/></clipPath><clipPath id="b"><polygon points="270.2 60.72 273.87 243.39 123.57 215.68 116.16 42.32 270.2 60.72" style="fill:none"/></clipPath><clipPath id="c"><polygon points="270.2 60.72 392.18 15.38 392.5 179.93 273.87 243.39 270.2 60.72" style="fill:none"/></clipPath><clipPath id="d"><polygon points="273.87 243.39 123.57 215.68 251.55 158.05 392.5 179.93 273.87 243.39" style="fill:none"/></clipPath><clipPath id="e"><polygon points="123.57 215.68 116.16 42.32 247.91 1.1 251.55 158.05 123.57 215.68" style="fill:none"/></clipPath><clipPath id="f"><polygon points="116.16 42.32 247.91 1.1 392.18 15.38 270.2 60.72 116.16 42.32" style="fill:none"/></clipPath><clipPath id="g"><path d="M247.16.17,393,14.56l.31,166.35L250.85,158.76ZM392.5,179.93l-.32-164.55L247.91,1.1l3.64,157,141,21.88" style="fill:none"/></clipPath><clipPath id="h"><path d="M115.34,41.28,271.05,59.82l3.68,184.68L122.85,216.44ZM273.87,243.39,270.2,60.72l-154-18.4,7.41,173.36,150.3,27.71" style="fill:none"/></clipPath><clipPath id="i"><polygon points="115.34 41.28 247.16 0.17 392.99 14.56 271.05 59.82 115.34 41.28" style="fill:none"/></clipPath><clipPath id="j"><polygon points="271.05 59.82 392.99 14.56 393.3 180.91 274.73 244.5 271.05 59.82" style="fill:none"/></clipPath><clipPath id="k"><polygon points="274.73 244.5 122.85 216.44 250.85 158.76 393.3 180.91 274.73 244.5" style="fill:none"/></clipPath><clipPath id="l"><polygon points="122.85 216.44 115.34 41.28 247.16 0.17 250.85 158.76 122.85 216.44" style="fill:none"/></clipPath><clipPath id="m"><polygon points="273.87 243.39 270.2 60.72 392.18 15.38 392.5 179.93 273.87 243.39" style="fill:none"/></clipPath><clipPath id="n"><polygon points="270.2 60.72 116.16 42.32 247.91 1.1 392.18 15.38 270.2 60.72" style="fill:none"/></clipPath><clipPath id="o"><polygon points="116.16 42.32 247.91 1.1 251.55 158.05 123.57 215.68 116.16 42.32" style="fill:none"/></clipPath><clipPath id="p"><polygon points="123.57 215.68 251.55 158.05 392.5 179.93 273.87 243.39 123.57 215.68" style="fill:none"/></clipPath></defs><title>medida1</title><g style="isolation:isolate"><g style="isolation:isolate"><g style="clip-path:url(#a)"><polygon points="392.18 15.38 392.5 179.93 251.55 158.05 247.91 1.1 392.18 15.38" style="fill:none;stroke:#000;stroke-miterlimit:10;stroke-width:0.25px"/></g></g><g style="isolation:isolate"><g style="clip-path:url(#b)"><polygon points="270.2 60.72 273.87 243.39 123.57 215.68 116.16 42.32 270.2 60.72" style="fill:none;stroke:#000;stroke-miterlimit:10;stroke-width:0.25px"/></g></g><g style="isolation:isolate"><g style="clip-path:url(#c)"><polygon points="270.2 60.72 392.18 15.38 392.5 179.93 273.87 243.39 270.2 60.72" style="fill:none;stroke:#000;stroke-miterlimit:10;stroke-width:0.25px"/></g></g><g style="isolation:isolate"><g style="clip-path:url(#d)"><polygon points="273.87 243.39 123.57 215.68 251.55 158.05 392.5 179.93 273.87 243.39" style="fill:none;stroke:#000;stroke-miterlimit:10;stroke-width:0.25px"/></g></g><g style="isolation:isolate"><g style="clip-path:url(#e)"><polygon points="123.57 215.68 116.16 42.32 247.91 1.1 251.55 158.05 123.57 215.68" style="fill:none;stroke:#000;stroke-miterlimit:10;stroke-width:0.25px"/></g></g><g style="isolation:isolate"><g style="clip-path:url(#f)"><polygon points="116.16 42.32 247.91 1.1 392.18 15.38 270.2 60.72 116.16 42.32" style="fill:none;stroke:#000;stroke-miterlimit:10;stroke-width:0.25px"/></g></g><g style="isolation:isolate"><g style="clip-path:url(#g)"><path d="M247.16.17,393,14.56l.31,166.35L250.85,158.76ZM392.5,179.93l-.32-164.55L247.91,1.1l3.64,157,141,21.88" style="fill:none;stroke:#000;stroke-miterlimit:10;stroke-width:0.25px"/></g></g><g style="isolation:isolate"><g style="clip-path:url(#h)"><path d="M115.34,41.28,271.05,59.82l3.68,184.68L122.85,216.44ZM273.87,243.39,270.2,60.72l-154-18.4,7.41,173.36,150.3,27.71" style="fill:none;stroke:#000;stroke-miterlimit:10;stroke-width:0.25px"/></g></g><g style="isolation:isolate"><g style="clip-path:url(#i)"><polygon points="115.34 41.28 247.16 0.17 392.99 14.56 271.05 59.82 115.34 41.28" style="fill:none;stroke:#000;stroke-miterlimit:10;stroke-width:0.25px"/></g></g><g style="isolation:isolate"><g style="clip-path:url(#j)"><polygon points="271.05 59.82 392.99 14.56 393.3 180.91 274.73 244.5 271.05 59.82" style="fill:none;stroke:#000;stroke-miterlimit:10;stroke-width:0.25px"/></g></g><g style="isolation:isolate"><g style="clip-path:url(#k)"><polygon points="274.73 244.5 122.85 216.44 250.85 158.76 393.3 180.91 274.73 244.5" style="fill:none;stroke:#000;stroke-miterlimit:10;stroke-width:0.25px"/></g></g><g style="isolation:isolate"><g style="clip-path:url(#l)"><polygon points="122.85 216.44 115.34 41.28 247.16 0.17 250.85 158.76 122.85 216.44" style="fill:none;stroke:#000;stroke-miterlimit:10;stroke-width:0.25px"/></g></g><g style="isolation:isolate"><g style="clip-path:url(#m)"><polygon points="273.87 243.39 270.2 60.72 392.18 15.38 392.5 179.93 273.87 243.39" style="fill:none;stroke:#000;stroke-miterlimit:10;stroke-width:0.25px"/></g></g><g style="isolation:isolate"><g style="clip-path:url(#n)"><polygon points="270.2 60.72 116.16 42.32 247.91 1.1 392.18 15.38 270.2 60.72" style="fill:none;stroke:#000;stroke-miterlimit:10;stroke-width:0.25px"/></g></g><g style="isolation:isolate"><g style="clip-path:url(#o)"><polygon points="116.16 42.32 247.91 1.1 251.55 158.05 123.57 215.68 116.16 42.32" style="fill:none;stroke:#000;stroke-miterlimit:10;stroke-width:0.25px"/></g></g><g style="isolation:isolate"><g style="clip-path:url(#p)"><polygon points="123.57 215.68 251.55 158.05 392.5 179.93 273.87 243.39 123.57 215.68" style="fill:none;stroke:#000;stroke-miterlimit:10;stroke-width:0.25px"/></g></g></g><line x1="282" y1="263.95" x2="401" y2="193.95" style="fill:none;stroke:#000"/><line x1="104" y1="214.95" x2="97" y2="46.95" style="fill:none;stroke:#000"/><line x1="111" y1="228.95" x2="271" y2="259.95" style="fill:none;stroke:#000"/><text transform="translate(133 275.86)" style="font-size:21px;font-family:MyriadPro-Regular, Myriad Pro">2.00 <tspan x="41.12" y="0" style="letter-spacing:-0.003999255952380952em">m</tspan><tspan x="58.55" y="0">t</tspan><tspan x="65.5" y="0" style="letter-spacing:-0.01097470238095238em">s</tspan><tspan x="73.58" y="0">.</tspan></text><text transform="translate(0 128.86)" style="font-size:21px;font-family:MyriadPro-Regular, Myriad Pro">2.00 <tspan x="41.12" y="0" style="letter-spacing:-0.003999255952380952em">m</tspan><tspan x="58.55" y="0">t</tspan><tspan x="65.5" y="0" style="letter-spacing:-0.01097470238095238em">s</tspan><tspan x="73.58" y="0">.</tspan></text><text transform="translate(347 249.36)" style="font-size:21px;font-family:MyriadPro-Regular, Myriad Pro">2.00 <tspan x="41.12" y="0" style="letter-spacing:-0.003999255952380952em">m</tspan><tspan x="58.55" y="0">t</tspan><tspan x="65.5" y="0" style="letter-spacing:-0.01097470238095238em">s</tspan><tspan x="73.58" y="0">.</tspan></text><g style="isolation:isolate"><polygon points="164.57 179.35 175.24 177.01 182.84 177.3 172.17 179.65 164.57 179.35" style="fill:#418299"/><polygon points="191.21 83.81 201.88 81.46 175.24 177.01 164.57 179.35 191.21 83.81" style="fill:#4c97b2"/><polygon points="178.09 158.28 188.75 155.94 182.84 177.3 172.17 179.65 178.09 158.28" style="fill:#b249ab"/><polygon points="180.16 161.35 190.83 159 184.92 180.37 174.25 182.71 180.16 161.35" style="fill:#4c98b2"/><polygon points="193.67 100.66 204.34 98.32 190.6 149 179.93 151.35 193.67 100.66" style="fill:#b34aac"/><polygon points="193.55 111.85 204.22 109.51 194.29 146.16 183.62 148.5 193.55 111.85" style="fill:#4c98b3"/><polygon points="183.62 148.5 194.29 146.16 213.33 146.89 202.66 149.24 183.62 148.5" style="fill:#418299"/><polygon points="179.93 151.35 190.6 149 216.93 150.02 206.26 152.36 179.93 151.35" style="fill:#993f93"/><polygon points="193.67 100.66 204.34 98.32 216.93 150.02 206.26 152.36 193.67 100.66" style="fill:#5dbadb"/><polygon points="178.09 158.28 188.75 155.94 218.69 157.09 208.02 159.44 178.09 158.28" style="fill:#418299"/><polygon points="208.02 159.44 218.69 157.09 224.15 178.9 213.48 181.24 208.02 159.44" style="fill:#5ebadb"/><polygon points="213.48 181.24 224.15 178.9 248.21 179.82 237.54 182.17 213.48 181.24" style="fill:#418299"/><path d="M212.69,84.64l24.85,97.53-24.06-.93L208,159.44l-29.93-1.16-5.92,21.37-7.6-.29,26.64-95.55Zm-32.76,66.71,26.33,1-12.59-51.7-13.74,50.69" style="fill:#be4eb6"/><path d="M179.93,151.35l13.74-50.69,12.59,51.7Zm3.69-2.85,19,.74-9.11-37.39-9.93,36.65" style="fill:#51a1be"/><polygon points="191.21 83.81 201.88 81.46 223.36 82.29 212.69 84.64 191.21 83.81" style="fill:#993f93"/><polygon points="189.15 80.73 199.81 78.39 225.47 79.38 214.8 81.72 189.15 80.73" style="fill:#418299"/><polygon points="212.69 84.64 223.36 82.29 248.21 179.82 237.54 182.17 212.69 84.64" style="fill:#db5ad3"/><path d="M214.8,81.72,241.19,185.3l-29.83-1.15-5.47-21.81-25.73-1-5.91,21.36-13.4-.51L189.14,80.73ZM208,159.44l5.46,21.8,24.06.93L212.69,84.64l-21.48-.83-26.64,95.55,7.6.29,5.92-21.37L208,159.44" style="fill:#51a1be"/><polygon points="214.8 81.72 225.47 79.38 251.86 182.95 241.19 185.3 214.8 81.72" style="fill:#5ebbdb"/></g></svg>