<svg xmlns="http://www.w3.org/2000/svg" xmlns:xlink="http://www.w3.org/1999/xlink" viewBox="0 0 428 281.11"><defs><clipPath id="a"><polygon points="392.18 15.38 392.5 179.93 251.55 158.05 247.91 1.1 392.18 15.38" style="fill:none"/></clipPath><clipPath id="b"><polygon points="270.2 60.72 273.87 243.39 123.57 215.68 116.16 42.32 270.2 60.72" style="fill:none"/></clipPath><clipPath id="c"><polygon points="270.2 60.72 392.18 15.38 392.5 179.93 273.87 243.39 270.2 60.72" style="fill:none"/></clipPath><clipPath id="d"><polygon points="273.87 243.39 123.57 215.68 251.55 158.05 392.5 179.93 273.87 243.39" style="fill:none"/></clipPath><clipPath id="e"><polygon points="123.57 215.68 116.16 42.32 247.91 1.1 251.55 158.05 123.57 215.68" style="fill:none"/></clipPath><clipPath id="f"><polygon points="116.16 42.32 247.91 1.1 392.18 15.38 270.2 60.72 116.16 42.32" style="fill:none"/></clipPath><clipPath id="g"><path d="M247.16.17,393,14.56l.31,166.35L250.85,158.76ZM392.5,179.93l-.32-164.55L247.91,1.1l3.64,157,141,21.88" style="fill:none"/></clipPath><clipPath id="h"><path d="M115.34,41.28,271.05,59.82l3.68,184.68L122.85,216.44ZM273.87,243.39,270.2,60.72l-154-18.4,7.41,173.36,150.3,27.71" style="fill:none"/></clipPath><clipPath id="i"><polygon points="115.34 41.28 247.16 0.17 392.99 14.56 271.05 59.82 115.34 41.28" style="fill:none"/></clipPath><clipPath id="j"><polygon points="271.05 59.82 392.99 14.56 393.3 180.91 274.73 244.5 271.05 59.82" style="fill:none"/></clipPath><clipPath id="k"><polygon points="274.73 244.5 122.85 216.44 250.85 158.76 393.3 180.91 274.73 244.5" style="fill:none"/></clipPath><clipPath id="l"><polygon points="122.85 216.44 115.34 41.28 247.16 0.17 250.85 158.76 122.85 216.44" style="fill:none"/></clipPath><clipPath id="m"><polygon points="273.87 243.39 270.2 60.72 392.18 15.38 392.5 179.93 273.87 243.39" style="fill:none"/></clipPath><clipPath id="n"><polygon points="270.2 60.72 116.16 42.32 247.91 1.1 392.18 15.38 270.2 60.72" style="fill:none"/></clipPath><clipPath id="o"><polygon points="116.16 42.32 247.91 1.1 251.55 158.05 123.57 215.68 116.16 42.32" style="fill:none"/></clipPath><clipPath id="p"><polygon points="123.57 215.68 251.55 158.05 392.5 179.93 273.87 243.39 123.57 215.68" style="fill:none"/></clipPath><clipPath id="q"><path d="M226.21,175.48a17.48,17.48,0,0,0,4.5-.39L220,177.44a17.93,17.93,0,0,1-4.5.38c-13.77-.53-20.74-14.82-20.71-42.48,0-16.23,1.56-28.24,4.68-36.12l10.67-2.35c-3.12,7.89-4.66,19.89-4.68,36.13C205.47,160.66,212.44,174.94,226.21,175.48Z" style="fill:none"/></clipPath><clipPath id="r"><path d="M200.82,83.64l10.66-2.34a35.15,35.15,0,0,0-19.69,12.14c-7.73,9.18-11.67,21.59-11.68,36.89,0,32.52,12.93,48.83,39.66,49.86a47.13,47.13,0,0,0,11.91-.94L221,181.59a46.65,46.65,0,0,1-11.91.95c-26.72-1-39.7-17.34-39.66-49.86,0-15.3,3.95-27.71,11.68-36.89A35.21,35.21,0,0,1,200.82,83.64Z" style="fill:none"/></clipPath><clipPath id="s"><path d="M240,176.27a32.58,32.58,0,0,1-8.27,3L221,181.59a32.57,32.57,0,0,0,8.27-3Z" style="fill:none"/></clipPath><clipPath id="t"><path d="M220.93,85.75c-4.64,1-8.22,4.71-10.75,11.12l-10.67,2.35c2.53-6.42,6.11-10.11,10.75-11.13Z" style="fill:none"/></clipPath><clipPath id="u"><path d="M211.09,91l10.67-2.35c-8.92,2-13.45,16.88-13.48,44.44,0,25.66,6,38.92,17.93,39.38a15.38,15.38,0,0,0,3.88-.32l-10.67,2.34a15.3,15.3,0,0,1-3.88.33c-11.92-.46-18-13.72-17.93-39.39C197.64,107.9,202.17,93,211.09,91Z" style="fill:none"/></clipPath><clipPath id="v"><path d="M211.48,81.3a41.25,41.25,0,0,1,10.5-.88l-10.66,2.35a41.22,41.22,0,0,0-10.5.87Z" style="fill:none"/></clipPath><clipPath id="w"><path d="M245,172.83a28.24,28.24,0,0,1-5.09,3.44l-10.67,2.35a28.24,28.24,0,0,0,5.09-3.44,30,30,0,0,0,2.23-2.12l10.67-2.35A26.4,26.4,0,0,1,245,172.83Z" style="fill:none"/></clipPath><clipPath id="x"><path d="M230.71,175.09,220,177.44a17.35,17.35,0,0,0,9.88-6.46c3.75-4.68,5.65-10.69,5.66-17.88a65.81,65.81,0,0,0-.6-7.71L245.65,143a68.07,68.07,0,0,1,.6,7.72c0,7.19-1.91,13.2-5.66,17.88A17.28,17.28,0,0,1,230.71,175.09Z" style="fill:none"/></clipPath><clipPath id="y"><path d="M210.26,88.09l10.66-2.34a12.76,12.76,0,0,1,3.36-.28c11.8.45,17.76,8.6,17.74,24.21,0,1.14,0,2.61-.1,4.4l-10.67,2.34c.07-1.79.1-3.26.11-4.39,0-15.62-6-23.76-17.75-24.22A13.54,13.54,0,0,0,210.26,88.09Z" style="fill:none"/></clipPath><clipPath id="z"><path d="M254.31,151.14c0,7-1.71,12.71-5.2,17.37l-10.67,2.35c3.49-4.67,5.2-10.4,5.2-17.37,0-1.53-.06-3.34-.19-5.4l10.67-2.34C254.25,147.8,254.31,149.62,254.31,151.14Z" style="fill:none"/></clipPath><clipPath id="aa"><path d="M232.34,182.17l-10.67,2.35a32.78,32.78,0,0,0,14.47-7c6.8-5.8,10.26-13.86,10.28-24,0-1.86-.09-4.1-.27-6.68l10.67-2.35c.18,2.58.27,4.82.26,6.69,0,10.1-3.47,18.16-10.27,23.95A32.78,32.78,0,0,1,232.34,182.17Z" style="fill:none"/></clipPath><clipPath id="ab"><path d="M211.32,82.77,222,80.42c18.94.73,28.29,10.46,28.57,29.72l-10.66,2.35C239.61,93.23,230.25,83.5,211.32,82.77Z" style="fill:none"/></clipPath><clipPath id="ac"><path d="M200.15,80.71l10.67-2.35A44.12,44.12,0,0,1,222,77.43c20.82.8,31.36,12.17,31.34,33.78l-10.67,2.35c0-21.61-10.52-33-31.34-33.79A43.7,43.7,0,0,0,200.15,80.71Z" style="fill:none"/></clipPath></defs><title>medida3</title><g style="isolation:isolate"><g style="isolation:isolate"><g style="clip-path:url(#a)"><polygon points="392.18 15.38 392.5 179.93 251.55 158.05 247.91 1.1 392.18 15.38" style="fill:none;stroke:#000;stroke-miterlimit:10;stroke-width:0.25px"/></g></g><g style="isolation:isolate"><g style="clip-path:url(#b)"><polygon points="270.2 60.72 273.87 243.39 123.57 215.68 116.16 42.32 270.2 60.72" style="fill:none;stroke:#000;stroke-miterlimit:10;stroke-width:0.25px"/></g></g><g style="isolation:isolate"><g style="clip-path:url(#c)"><polygon points="270.2 60.72 392.18 15.38 392.5 179.93 273.87 243.39 270.2 60.72" style="fill:none;stroke:#000;stroke-miterlimit:10;stroke-width:0.25px"/></g></g><g style="isolation:isolate"><g style="clip-path:url(#d)"><polygon points="273.87 243.39 123.57 215.68 251.55 158.05 392.5 179.93 273.87 243.39" style="fill:none;stroke:#000;stroke-miterlimit:10;stroke-width:0.25px"/></g></g><g style="isolation:isolate"><g style="clip-path:url(#e)"><polygon points="123.57 215.68 116.16 42.32 247.91 1.1 251.55 158.05 123.57 215.68" style="fill:none;stroke:#000;stroke-miterlimit:10;stroke-width:0.25px"/></g></g><g style="isolation:isolate"><g style="clip-path:url(#f)"><polygon points="116.16 42.32 247.91 1.1 392.18 15.38 270.2 60.72 116.16 42.32" style="fill:none;stroke:#000;stroke-miterlimit:10;stroke-width:0.25px"/></g></g><g style="isolation:isolate"><g style="clip-path:url(#g)"><path d="M247.16.17,393,14.56l.31,166.35L250.85,158.76ZM392.5,179.93l-.32-164.55L247.91,1.1l3.64,157,141,21.88" style="fill:none;stroke:#000;stroke-miterlimit:10;stroke-width:0.25px"/></g></g><g style="isolation:isolate"><g style="clip-path:url(#h)"><path d="M115.34,41.28,271.05,59.82l3.68,184.68L122.85,216.44ZM273.87,243.39,270.2,60.72l-154-18.4,7.41,173.36,150.3,27.71" style="fill:none;stroke:#000;stroke-miterlimit:10;stroke-width:0.25px"/></g></g><g style="isolation:isolate"><g style="clip-path:url(#i)"><polygon points="115.34 41.28 247.16 0.17 392.99 14.56 271.05 59.82 115.34 41.28" style="fill:none;stroke:#000;stroke-miterlimit:10;stroke-width:0.25px"/></g></g><g style="isolation:isolate"><g style="clip-path:url(#j)"><polygon points="271.05 59.82 392.99 14.56 393.3 180.91 274.73 244.5 271.05 59.82" style="fill:none;stroke:#000;stroke-miterlimit:10;stroke-width:0.25px"/></g></g><g style="isolation:isolate"><g style="clip-path:url(#k)"><polygon points="274.73 244.5 122.85 216.44 250.85 158.76 393.3 180.91 274.73 244.5" style="fill:none;stroke:#000;stroke-miterlimit:10;stroke-width:0.25px"/></g></g><g style="isolation:isolate"><g style="clip-path:url(#l)"><polygon points="122.85 216.44 115.34 41.28 247.16 0.17 250.85 158.76 122.85 216.44" style="fill:none;stroke:#000;stroke-miterlimit:10;stroke-width:0.25px"/></g></g><g style="isolation:isolate"><g style="clip-path:url(#m)"><polygon points="273.87 243.39 270.2 60.72 392.18 15.38 392.5 179.93 273.87 243.39" style="fill:none;stroke:#000;stroke-miterlimit:10;stroke-width:0.25px"/></g></g><g style="isolation:isolate"><g style="clip-path:url(#n)"><polygon points="270.2 60.72 116.16 42.32 247.91 1.1 392.18 15.38 270.2 60.72" style="fill:none;stroke:#000;stroke-miterlimit:10;stroke-width:0.25px"/></g></g><g style="isolation:isolate"><g style="clip-path:url(#o)"><polygon points="116.16 42.32 247.91 1.1 251.55 158.05 123.57 215.68 116.16 42.32" style="fill:none;stroke:#000;stroke-miterlimit:10;stroke-width:0.25px"/></g></g><g style="isolation:isolate"><g style="clip-path:url(#p)"><polygon points="123.57 215.68 251.55 158.05 392.5 179.93 273.87 243.39 123.57 215.68" style="fill:none;stroke:#000;stroke-miterlimit:10;stroke-width:0.25px"/></g></g></g><line x1="282" y1="263.95" x2="401" y2="193.95" style="fill:none;stroke:#000"/><line x1="104" y1="214.95" x2="97" y2="46.95" style="fill:none;stroke:#000"/><line x1="111" y1="228.95" x2="271" y2="259.95" style="fill:none;stroke:#000"/><text transform="translate(133 275.86)" style="font-size:21px;font-family:MyriadPro-Regular, Myriad Pro">3.60 <tspan x="41.12" y="0" style="letter-spacing:-0.003999255952380952em">m</tspan><tspan x="58.55" y="0">t</tspan><tspan x="65.5" y="0" style="letter-spacing:-0.01097470238095238em">s</tspan><tspan x="73.58" y="0">.</tspan></text><text transform="translate(0 128.86)" style="font-size:21px;font-family:MyriadPro-Regular, Myriad Pro">2.40 <tspan x="41.12" y="0" style="letter-spacing:-0.003999255952380952em">m</tspan><tspan x="58.55" y="0">t</tspan><tspan x="65.5" y="0" style="letter-spacing:-0.01097470238095238em">s</tspan><tspan x="73.58" y="0">.</tspan></text><text transform="translate(347 249.36)" style="font-size:21px;font-family:MyriadPro-Regular, Myriad Pro">4.00 <tspan x="41.12" y="0" style="letter-spacing:-0.003999255952380952em">m</tspan><tspan x="58.55" y="0">t</tspan><tspan x="65.5" y="0" style="letter-spacing:-0.01097470238095238em">s</tspan><tspan x="73.58" y="0">.</tspan></text><g style="isolation:isolate"><g style="isolation:isolate"><g style="clip-path:url(#q)"><g style="isolation:isolate"><path d="M199.88,98.31,210.55,96c-.3.71-.59,1.45-.87,2.24L199,100.55c.28-.78.57-1.53.87-2.24" style="fill:#2b3682"/><path d="M199,100.55l10.67-2.34c-.31.87-.6,1.79-.87,2.75l-10.67,2.35c.27-1,.56-1.88.87-2.76" style="fill:#2d3886"/><path d="M198.14,103.31,208.81,101c-.32,1.11-.61,2.27-.88,3.5l-10.67,2.35c.27-1.23.56-2.4.88-3.5" style="fill:#2e398a"/><path d="M197.26,106.81l10.67-2.35c-.32,1.48-.62,3.05-.88,4.7l-10.66,2.35c.26-1.66.55-3.22.87-4.7" style="fill:#303b8e"/><path d="M196.39,111.51l10.66-2.35c-.32,2.08-.6,4.3-.82,6.66l-10.67,2.34c.23-2.35.5-4.57.83-6.65" style="fill:#313d92"/><path d="M195.56,118.16l10.67-2.34q-.45,4.82-.63,10.4l-10.66,2.35q.17-5.59.62-10.41" style="fill:#323f96"/><path d="M194.94,128.57l10.66-2.35c-.06,2.17-.1,4.43-.1,6.78q0,2.85.09,5.52l-10.66,2.34c-.07-1.77-.1-3.61-.1-5.52,0-2.34,0-4.6.11-6.77" style="fill:#34409b"/><path d="M194.93,140.86l10.66-2.34c.11,2.93.31,5.68.59,8.27l-10.67,2.34c-.28-2.58-.48-5.34-.58-8.27" style="fill:#35429f"/><path d="M195.51,149.13l10.67-2.34c.26,2.37.6,4.61,1,6.69l-10.67,2.35c-.42-2.09-.75-4.32-1-6.7" style="fill:#3744a3"/><path d="M196.53,155.83l10.67-2.35a53.09,53.09,0,0,0,1.55,6.07l-10.67,2.34a53.44,53.44,0,0,1-1.55-6.06" style="fill:#3846a7"/><path d="M198.08,161.89l10.67-2.34a29.26,29.26,0,0,0,5,9.78l-10.67,2.34a29.35,29.35,0,0,1-5-9.78" style="fill:#3947ab"/><path d="M203.12,171.67l10.67-2.34a17.45,17.45,0,0,0,1.6,1.71l-10.67,2.35a18.8,18.8,0,0,1-1.6-1.72" style="fill:#3846a7"/><path d="M204.72,173.39,215.39,171q.57.54,1.17,1l-10.67,2.34c-.4-.31-.79-.65-1.17-1" style="fill:#3744a3"/><path d="M205.89,174.4l10.67-2.34c.35.27.7.52,1.06.76L207,175.17c-.36-.24-.71-.5-1.06-.77" style="fill:#35429f"/><path d="M207,175.17l10.67-2.35c.32.21.66.42,1,.61l-10.67,2.34-1-.6" style="fill:#34409b"/><path d="M207.94,175.77l10.67-2.34,1,.49-10.67,2.34c-.32-.15-.64-.31-1-.49" style="fill:#323f96"/><path d="M208.9,176.26l10.67-2.34c.32.15.64.29,1,.42l-10.67,2.34c-.33-.13-.65-.27-1-.42" style="fill:#313d92"/><path d="M209.87,176.68l10.67-2.34c.33.13.67.24,1,.35L210.88,177c-.34-.11-.68-.23-1-.36" style="fill:#303b8e"/><path d="M210.88,177l10.67-2.35c.34.11.7.21,1.06.3l-10.67,2.34c-.36-.09-.71-.18-1.06-.29" style="fill:#2e398a"/><path d="M211.94,177.33,222.61,175c.38.09.76.17,1.15.23l-10.66,2.35c-.4-.07-.78-.15-1.16-.24" style="fill:#2d3886"/><path d="M213.1,177.57l10.66-2.35c.43.08.87.14,1.31.18l-10.67,2.34c-.44,0-.88-.1-1.3-.17" style="fill:#2b3682"/><path d="M214.4,177.74l10.67-2.34c.38,0,.76.06,1.14.08h.31l-10.67,2.35h-.31c-.38,0-.76,0-1.14-.08" style="fill:#2a347d"/><path d="M215.85,177.83l10.67-2.35c.52,0,1,0,1.55,0L217.4,177.8c-.51,0-1,0-1.55,0" style="fill:#293279"/><path d="M217.4,177.8l10.67-2.34c.56,0,1.11-.1,1.64-.18L219,177.63c-.53.08-1.08.14-1.64.17" style="fill:#273175"/><path d="M219,177.63l10.67-2.35c.34-.05.67-.11,1-.19L220,177.44l-1,.19" style="fill:#262f71"/></g></g></g><g style="isolation:isolate"><g style="clip-path:url(#r)"><g style="isolation:isolate"><path d="M200.82,83.64l10.66-2.34a34.76,34.76,0,0,0-18.24,10.51l-10.67,2.35a34.8,34.8,0,0,1,18.25-10.52" style="fill:#397185"/><path d="M182.57,94.16l10.67-2.35c-.49.53-1,1.07-1.45,1.63s-1.11,1.36-1.63,2.06l-10.67,2.35c.52-.71,1.07-1.39,1.63-2.06s1-1.11,1.45-1.63" style="fill:#3b758a"/><path d="M179.49,97.85l10.67-2.35c-.77,1-1.5,2.12-2.19,3.23l-10.67,2.35c.69-1.12,1.42-2.19,2.19-3.23" style="fill:#3d7a8f"/><path d="M177.3,101.08,188,98.73c-.61,1-1.18,2-1.72,3.06l-10.67,2.34c.54-1,1.11-2.06,1.72-3" style="fill:#3f7e94"/><path d="M175.58,104.13l10.67-2.34c-.5,1-1,2-1.42,3l-10.67,2.35c.44-1,.92-2,1.42-3" style="fill:#418299"/><path d="M174.16,107.16l10.67-2.35c-.43,1-.83,2-1.21,3.09L173,110.24c.38-1,.78-2.08,1.21-3.08" style="fill:#44879e"/><path d="M173,110.24l10.67-2.34c-.37,1-.71,2.13-1,3.23l-10.67,2.35c.32-1.1.66-2.18,1-3.24" style="fill:#468ba3"/><path d="M171.92,113.48l10.67-2.35q-.48,1.71-.87,3.48L171.05,117c.26-1.18.55-2.34.87-3.47" style="fill:#488fa8"/><path d="M171.05,117l10.67-2.34c-.28,1.24-.52,2.52-.72,3.82l-10.67,2.34c.2-1.3.44-2.57.72-3.82" style="fill:#4a94ad"/><path d="M170.33,120.77,181,118.43c-.22,1.4-.4,2.84-.54,4.31l-10.67,2.34c.14-1.46.32-2.9.54-4.31" style="fill:#4c98b3"/><path d="M169.79,125.08l10.67-2.34c-.16,1.63-.26,3.3-.31,5l-10.67,2.34c.05-1.7.16-3.37.31-5" style="fill:#4e9cb8"/><path d="M169.48,130.09l10.67-2.34c0,.85,0,1.71,0,2.58,0,1.45,0,2.87.07,4.25l-10.67,2.35c0-1.39-.07-2.8-.07-4.25,0-.87,0-1.73,0-2.59" style="fill:#51a1bd"/><path d="M169.51,136.93l10.67-2.35c.09,2.42.25,4.74.5,7L170,143.88q-.36-3.33-.5-6.95" style="fill:#53a5c2"/><path d="M170,143.88l10.67-2.34q.36,3.3,1,6.32L171,150.21c-.4-2-.73-4.12-1-6.33" style="fill:#55a9c7"/><path d="M171,150.21l10.66-2.35a60.12,60.12,0,0,0,1.7,6.58l-10.67,2.35a58,58,0,0,1-1.69-6.58" style="fill:#57aecc"/><path d="M172.67,156.79l10.67-2.35a39.16,39.16,0,0,0,7,13.15l-10.67,2.35a39.16,39.16,0,0,1-7-13.15" style="fill:#59b2d1"/><path d="M179.66,169.94l10.67-2.35a31,31,0,0,0,2.65,2.83l-10.67,2.35a32.35,32.35,0,0,1-2.65-2.83" style="fill:#57aecc"/><path d="M182.31,172.77,193,170.42c.71.67,1.44,1.3,2.21,1.9l-10.67,2.35c-.77-.6-1.5-1.23-2.21-1.9" style="fill:#55a9c7"/><path d="M184.52,174.67l10.67-2.35c.67.52,1.36,1,2.07,1.49l-10.66,2.35c-.72-.47-1.41-1-2.08-1.49" style="fill:#53a5c2"/><path d="M186.6,176.16l10.66-2.35c.67.44,1.35.86,2.05,1.25l-10.66,2.35c-.71-.4-1.39-.81-2.05-1.25" style="fill:#51a1bd"/><path d="M188.65,177.41l10.66-2.35c.69.38,1.4.75,2.12,1.09l-10.67,2.34c-.72-.34-1.43-.7-2.11-1.08" style="fill:#4e9cb8"/><path d="M190.76,178.49l10.67-2.34c.73.34,1.49.67,2.26,1L193,179.47c-.77-.31-1.52-.63-2.26-1" style="fill:#4c98b3"/><path d="M193,179.47l10.67-2.35c.8.31,1.63.6,2.47.87l-10.67,2.34c-.84-.26-1.66-.55-2.47-.86" style="fill:#4a94ad"/><path d="M195.49,180.33,206.16,178c.89.28,1.81.53,2.75.76l-10.67,2.35c-.94-.23-1.86-.49-2.75-.77" style="fill:#488fa8"/><path d="M198.24,181.1l10.67-2.35c1,.26,2.11.48,3.2.66l-10.67,2.35c-1.09-.19-2.16-.41-3.2-.66" style="fill:#468ba3"/><path d="M201.44,181.76l10.67-2.35c1.26.22,2.54.39,3.87.52l-10.67,2.35c-1.32-.13-2.61-.3-3.87-.52" style="fill:#44879e"/><path d="M205.31,182.28,216,179.93c1.23.13,2.5.21,3.79.26l.91,0L210,182.57l-.91,0c-1.29,0-2.56-.14-3.79-.26" style="fill:#418299"/><path d="M210,182.57l10.67-2.35c1.51,0,3,0,4.39-.08l-10.67,2.35c-1.42.09-2.88.11-4.39.08" style="fill:#3f7e94"/><path d="M214.4,182.49l10.67-2.35a40.87,40.87,0,0,0,4.23-.45L218.63,182q-2,.32-4.23.45" style="fill:#3d7a8f"/><path d="M218.63,182l10.67-2.35c.81-.12,1.6-.27,2.38-.44L221,181.59c-.78.17-1.57.32-2.38.45" style="fill:#3b758a"/></g></g></g><g style="isolation:isolate"><g style="clip-path:url(#s)"><g style="isolation:isolate"><path d="M236.62,173l10.67-2.34a28.62,28.62,0,0,1-2.25,2.14,30.26,30.26,0,0,1-13.36,6.42L221,181.59a30.24,30.24,0,0,0,13.36-6.41,28.72,28.72,0,0,0,2.25-2.15" style="fill:#242d6d"/></g></g></g><g style="isolation:isolate"><g style="clip-path:url(#t)"><g style="isolation:isolate"><path d="M210.26,88.09l10.66-2.34a12.08,12.08,0,0,0-6.32,3.71l-10.67,2.35a12.13,12.13,0,0,1,6.33-3.72" style="fill:#242d6d"/><path d="M203.93,91.81l10.67-2.35a14.94,14.94,0,0,0-1.23,1.47L202.7,93.28a16.48,16.48,0,0,1,1.23-1.47" style="fill:#262f71"/><path d="M202.7,93.28l10.67-2.35c-.35.47-.68,1-1,1.49l-10.67,2.35c.33-.53.66-1,1-1.49" style="fill:#273175"/><path d="M201.69,94.77l10.67-2.35c-.32.52-.62,1.07-.92,1.65l-10.67,2.35c.3-.58.61-1.13.92-1.65" style="fill:#293279"/><path d="M200.77,96.42l10.67-2.35c-.31.6-.61,1.23-.89,1.9l-10.67,2.34c.29-.66.58-1.29.89-1.89" style="fill:#2a347d"/><path d="M199.88,98.31,210.55,96c-.3.71-.59,1.45-.87,2.24L199,100.55c.28-.78.57-1.53.87-2.24" style="fill:#2b3682"/></g></g></g><g style="isolation:isolate"><g style="clip-path:url(#u)"><g style="isolation:isolate"><path d="M211.09,91l10.67-2.35a9.81,9.81,0,0,0-5.09,3L206,94a9.85,9.85,0,0,1,5.09-3" style="fill:#397185"/><path d="M206,94l10.67-2.34A12.76,12.76,0,0,0,215.58,93l-10.67,2.35A14.13,14.13,0,0,1,206,94" style="fill:#3b758a"/><path d="M204.91,95.32,215.58,93c-.31.42-.61.86-.9,1.33L204,96.65a13.37,13.37,0,0,1,.89-1.33" style="fill:#3d7a8f"/><path d="M204,96.65l10.66-2.35c-.28.46-.56,1-.82,1.47l-10.67,2.34c.27-.51.54-1,.83-1.46" style="fill:#3f7e94"/><path d="M203.19,98.11l10.67-2.34c-.28.53-.54,1.1-.8,1.69L202.4,99.81c.25-.59.52-1.16.79-1.7" style="fill:#418299"/><path d="M202.4,99.81l10.66-2.35c-.27.65-.54,1.33-.79,2.05l-10.67,2.34c.25-.71.52-1.39.8-2" style="fill:#44879e"/><path d="M201.6,101.85l10.67-2.34c-.29.81-.56,1.66-.81,2.56l-10.67,2.34c.25-.89.53-1.75.81-2.56" style="fill:#468ba3"/><path d="M200.79,104.41l10.67-2.34q-.45,1.58-.84,3.33L200,107.74c.25-1.17.53-2.28.83-3.33" style="fill:#488fa8"/><path d="M200,107.74l10.66-2.34c-.3,1.4-.58,2.88-.83,4.46l-10.67,2.34c.25-1.57.53-3.06.84-4.46" style="fill:#4a94ad"/><path d="M199.12,112.2l10.67-2.34q-.47,3-.8,6.47l-10.67,2.35q.33-3.45.8-6.48" style="fill:#4c98b3"/><path d="M198.32,118.68,209,116.33c-.29,3.12-.5,6.5-.61,10.14l-10.67,2.34q.18-5.44.61-10.13" style="fill:#4e9cb8"/><path d="M197.71,128.81l10.67-2.34c-.06,2.12-.1,4.33-.1,6.64,0,1.88,0,3.69.09,5.44L197.7,140.9c-.06-1.75-.09-3.57-.09-5.45,0-2.3,0-4.51.1-6.64" style="fill:#51a1bd"/><path d="M197.7,140.9l10.67-2.35c.11,2.85.29,5.53.57,8l-10.67,2.35q-.41-3.75-.57-8" style="fill:#53a5c2"/><path d="M198.27,148.92l10.67-2.35q.38,3.39,1,6.34l-10.67,2.34q-.58-2.94-1-6.33" style="fill:#55a9c7"/><path d="M199.23,155.25l10.67-2.34a51,51,0,0,0,1.45,5.65l-10.67,2.34a49.87,49.87,0,0,1-1.45-5.65" style="fill:#57aecc"/><path d="M200.68,160.9l10.67-2.34a26.14,26.14,0,0,0,4.54,8.8l-10.66,2.34a26,26,0,0,1-4.55-8.8" style="fill:#59b2d1"/><path d="M205.23,169.7l10.66-2.34a16.34,16.34,0,0,0,1.33,1.41l-10.67,2.35a16.29,16.29,0,0,1-1.32-1.42" style="fill:#57aecc"/><path d="M206.55,171.12l10.67-2.35c.33.31.67.6,1,.88L207.57,172q-.52-.41-1-.87" style="fill:#55a9c7"/><path d="M207.57,172l10.67-2.34a10.56,10.56,0,0,0,.87.62l-10.67,2.35c-.3-.2-.58-.41-.87-.63" style="fill:#53a5c2"/><path d="M208.44,172.62l10.67-2.35c.28.19.56.36.85.52l-10.67,2.35c-.29-.16-.57-.34-.85-.52" style="fill:#51a1bd"/><path d="M209.29,173.14,220,170.79c.26.15.52.28.8.41l-10.67,2.35-.8-.41" style="fill:#4e9cb8"/><path d="M210.09,173.55l10.67-2.35a8.24,8.24,0,0,0,.81.35L210.9,173.9l-.81-.35" style="fill:#4c98b3"/><path d="M210.9,173.9l10.67-2.35c.27.11.55.21.83.3l-10.67,2.34c-.28-.09-.55-.18-.83-.29" style="fill:#4a94ad"/><path d="M211.73,174.19l10.67-2.34c.29.09.59.17.88.24l-10.66,2.35c-.3-.07-.6-.16-.89-.25" style="fill:#488fa8"/><path d="M212.62,174.44l10.66-2.35c.31.08.62.14.94.2l-10.67,2.34c-.31,0-.63-.12-.93-.19" style="fill:#468ba3"/><path d="M213.55,174.63l10.67-2.34c.35.06.71.1,1.08.14l-10.67,2.35c-.37,0-.72-.09-1.08-.15" style="fill:#44879e"/><path d="M214.63,174.78l10.67-2.35c.3,0,.6,0,.91.06h.28l-10.67,2.35h-.28l-.91-.06" style="fill:#418299"/><path d="M215.82,174.85l10.67-2.35c.46,0,.91,0,1.36,0l-10.67,2.34c-.45,0-.9,0-1.36,0" style="fill:#3f7e94"/><path d="M217.18,174.82l10.67-2.34a13,13,0,0,0,1.4-.16l-10.67,2.35c-.46.07-.92.12-1.4.15" style="fill:#3d7a8f"/><path d="M218.58,174.67l10.67-2.35q.42-.06.84-.15l-10.67,2.34c-.28.06-.55.12-.84.16" style="fill:#3b758a"/></g></g></g><g style="isolation:isolate"><g style="clip-path:url(#v)"><g style="isolation:isolate"><path d="M200.82,83.64l10.66-2.34c.75-.17,1.5-.31,2.26-.43l-10.67,2.35q-1.14.18-2.25.42" style="fill:#262f71"/><path d="M203.07,83.22l10.67-2.35c1.24-.19,2.51-.33,3.81-.41l-10.67,2.35c-1.3.08-2.57.21-3.81.41" style="fill:#273175"/><path d="M206.88,82.81l10.67-2.35c1.2-.07,2.44-.09,3.69-.06l-10.67,2.34c-1.25,0-2.48,0-3.69.07" style="fill:#293279"/><path d="M210.57,82.74l10.67-2.34.74,0-10.66,2.35-.75,0" style="fill:#2a347d"/></g></g></g><g style="isolation:isolate"><g style="clip-path:url(#w)"><g style="isolation:isolate"><path d="M236.62,173l10.67-2.34a28.62,28.62,0,0,1-2.25,2.14,30.26,30.26,0,0,1-13.36,6.42L221,181.59a30.24,30.24,0,0,0,13.36-6.41,28.72,28.72,0,0,0,2.25-2.15" style="fill:#242d6d"/></g></g></g><g style="isolation:isolate"><g style="clip-path:url(#x)"><g style="isolation:isolate"><path d="M235,145.39,245.65,143c.06.53.12,1,.18,1.51l-10.67,2.35c-.06-.48-.11-1-.18-1.51" style="fill:#55a9c7"/><path d="M235.16,146.9l10.67-2.35c.21,2,.35,3.63.4,5l-10.67,2.34c-.05-1.37-.18-3-.4-5" style="fill:#53a5c2"/><path d="M235.56,151.9l10.67-2.34c0,.42,0,.82,0,1.2s0,.79,0,1.18l-10.67,2.35c0-.39,0-.79,0-1.19s0-.77,0-1.2" style="fill:#51a1bd"/><path d="M235.56,154.29l10.67-2.35c0,.8-.07,1.57-.14,2.34l-10.67,2.34c.07-.76.12-1.54.14-2.33" style="fill:#4e9cb8"/><path d="M235.42,156.62l10.67-2.34c-.07.69-.16,1.37-.26,2l-10.67,2.35c.11-.67.19-1.35.26-2" style="fill:#4c98b3"/><path d="M235.16,158.67l10.67-2.35c-.1.63-.21,1.24-.35,1.85l-10.67,2.34c.14-.6.25-1.22.35-1.84" style="fill:#4a94ad"/><path d="M234.81,160.51l10.67-2.34c-.13.58-.27,1.14-.43,1.7l-10.67,2.35c.16-.56.31-1.13.43-1.71" style="fill:#488fa8"/><path d="M234.38,162.22l10.67-2.35c-.15.55-.33,1.09-.51,1.62l-10.67,2.35q.28-.79.51-1.62" style="fill:#468ba3"/><path d="M233.87,163.84l10.67-2.35c-.19.53-.4,1.06-.62,1.57l-10.66,2.35c.21-.52.42-1,.61-1.57" style="fill:#44879e"/><path d="M233.26,165.41l10.66-2.35c-.22.53-.47,1.05-.73,1.56L232.52,167c.26-.51.51-1,.74-1.56" style="fill:#418299"/><path d="M232.52,167l10.67-2.35c-.28.55-.59,1.09-.91,1.61l-10.66,2.34c.32-.52.62-1,.9-1.6" style="fill:#3f7e94"/><path d="M231.62,168.57l10.66-2.34c-.36.59-.75,1.17-1.17,1.73l-10.67,2.34c.42-.56.81-1.13,1.18-1.73" style="fill:#3d7a8f"/><path d="M230.44,170.3,241.11,168l-.52.68q-.56.69-1.14,1.32l-10.67,2.34q.58-.62,1.14-1.32c.18-.22.35-.45.52-.68" style="fill:#3b758a"/><path d="M228.78,172.3,239.45,170a16.81,16.81,0,0,1-8.74,5.13L220,177.44a16.72,16.72,0,0,0,8.74-5.14" style="fill:#397185"/></g></g></g><g style="isolation:isolate"><g style="clip-path:url(#y)"><g style="isolation:isolate"><path d="M210.26,88.09l10.66-2.34.69-.13L210.94,88l-.68.13" style="fill:#3b758a"/><path d="M210.94,88l10.67-2.34a12.57,12.57,0,0,1,1.25-.14l-10.67,2.35c-.42,0-.84.07-1.25.13" style="fill:#3d7a8f"/><path d="M212.19,87.83l10.67-2.35c.39,0,.78,0,1.18,0l-10.67,2.35a11.57,11.57,0,0,0-1.18,0" style="fill:#3f7e94"/><path d="M213.37,87.81,224,85.46h.24c.5,0,1,0,1.48.1l-10.67,2.34c-.48,0-1-.08-1.48-.1h-.24" style="fill:#418299"/><path d="M215.09,87.91l10.67-2.34q.8.08,1.56.21l-10.67,2.34q-.75-.12-1.56-.21" style="fill:#44879e"/><path d="M216.65,88.12l10.67-2.34c.46.07.9.17,1.33.27L218,88.4c-.44-.11-.88-.2-1.34-.28" style="fill:#468ba3"/><path d="M218,88.4l10.66-2.35c.41.1.8.21,1.18.33l-10.67,2.34c-.38-.12-.77-.23-1.17-.32" style="fill:#488fa8"/><path d="M219.16,88.72l10.67-2.34a11.22,11.22,0,0,1,1.07.38L220.24,89.1c-.35-.13-.71-.26-1.08-.38" style="fill:#4a94ad"/><path d="M220.24,89.1l10.66-2.34q.51.19,1,.42l-10.67,2.35c-.32-.15-.65-.3-1-.43" style="fill:#4c98b3"/><path d="M221.22,89.53l10.67-2.35c.32.15.64.32,1,.49L222.17,90c-.31-.17-.62-.33-.95-.48" style="fill:#4e9cb8"/><path d="M222.17,90l10.67-2.34c.32.18.63.36.93.56L223.1,90.58q-.45-.3-.93-.57" style="fill:#51a1bd"/><path d="M223.1,90.58l10.67-2.35c.32.22.63.44.94.68L224,91.25c-.31-.23-.62-.46-.94-.67" style="fill:#53a5c2"/><path d="M224,91.25l10.67-2.34c.35.27.68.56,1,.86l-10.67,2.35c-.33-.3-.66-.59-1-.87" style="fill:#55a9c7"/><path d="M225.05,92.12l10.67-2.35A17,17,0,0,1,237,91.15L226.34,93.5a17,17,0,0,0-1.29-1.38" style="fill:#57aecc"/><path d="M226.34,93.5,237,91.15a19.24,19.24,0,0,1,3.4,6.46L229.75,100a19.38,19.38,0,0,0-3.41-6.45" style="fill:#59b2d1"/><path d="M229.75,100l10.66-2.34a28.86,28.86,0,0,1,.84,3.24l-10.67,2.35a31.42,31.42,0,0,0-.83-3.25" style="fill:#57aecc"/><path d="M230.58,103.2l10.67-2.35c.2,1,.36,2.08.49,3.2l-10.67,2.34c-.12-1.11-.29-2.18-.49-3.19" style="fill:#55a9c7"/><path d="M231.07,106.39l10.67-2.34c.12,1.11.2,2.28.25,3.49l-10.67,2.35c0-1.22-.13-2.38-.25-3.5" style="fill:#53a5c2"/><path d="M231.32,109.89,242,107.54c0,.7,0,1.41,0,2.14s0,1.82-.05,3L231.3,115c0-1.17.06-2.17.06-3s0-1.44,0-2.14" style="fill:#51a1bd"/><path d="M231.3,115,242,112.67c0,.44,0,.91-.05,1.41l-10.67,2.34c0-.49,0-1,.05-1.4" style="fill:#4e9cb8"/></g></g></g><polygon points="234.98 145.39 245.65 143.04 254.12 145.75 243.45 148.09 234.98 145.39" style="fill:#313d92"/><g style="isolation:isolate"><g style="clip-path:url(#z)"><g style="isolation:isolate"><path d="M243.45,148.09l10.67-2.34c.06,1,.11,2,.14,2.86L243.6,151c0-.89-.09-1.84-.15-2.86" style="fill:#35429f"/><path d="M243.6,151l10.66-2.34c0,.91.05,1.76.05,2.53,0,.42,0,.83,0,1.23l-10.67,2.35c0-.41,0-.82,0-1.23,0-.78,0-1.62,0-2.54" style="fill:#34409b"/><path d="M243.62,154.72l10.67-2.35c0,.82-.07,1.61-.14,2.39l-10.67,2.34c.07-.77.12-1.57.14-2.38" style="fill:#323f96"/><path d="M243.48,157.1l10.67-2.34c-.07.7-.16,1.38-.26,2.06l-10.67,2.34c.1-.67.19-1.36.26-2.06" style="fill:#313d92"/><path d="M243.22,159.16l10.67-2.34c-.1.62-.22,1.24-.35,1.84L242.87,161c.14-.6.25-1.21.35-1.84" style="fill:#303b8e"/><path d="M242.87,161l10.67-2.34c-.12.57-.27,1.14-.43,1.69l-10.66,2.35c.15-.56.3-1.12.42-1.7" style="fill:#2e398a"/><path d="M242.45,162.7l10.66-2.35c-.15.55-.32,1.08-.51,1.6l-10.66,2.35c.18-.52.35-1.06.51-1.6" style="fill:#2d3886"/><path d="M241.94,164.3,252.6,162c-.18.53-.39,1.05-.6,1.56l-10.67,2.35c.22-.51.42-1,.61-1.56" style="fill:#2b3682"/><path d="M241.33,165.86,252,163.51c-.23.53-.48,1.06-.74,1.57l-10.67,2.34c.26-.51.51-1,.74-1.56" style="fill:#2a347d"/><path d="M240.59,167.42l10.67-2.34c-.29.55-.59,1.09-.91,1.62L239.68,169c.32-.52.63-1.06.91-1.62" style="fill:#293279"/><path d="M239.68,169l10.67-2.34c-.38.61-.78,1.2-1.21,1.78l-10.67,2.35c.43-.58.83-1.18,1.21-1.79" style="fill:#273175"/><path d="M238.47,170.83l10.67-2.35a25.77,25.77,0,0,1-1.85,2.21L236.62,173a25.64,25.64,0,0,0,1.85-2.2" style="fill:#262f71"/></g></g></g><g style="isolation:isolate"><g style="clip-path:url(#aa)"><g style="isolation:isolate"><path d="M246.15,146.91l10.67-2.35c.1,1.42.17,2.74.21,3.95l-10.67,2.35c0-1.21-.11-2.53-.21-4" style="fill:#53a5c2"/><path d="M246.36,150.86,257,148.51c0,1,.05,1.9.05,2.74,0,.43,0,.86,0,1.28l-10.67,2.35c0-.43,0-.85,0-1.29q0-1.25-.06-2.73" style="fill:#51a1bd"/><path d="M246.39,154.88l10.67-2.35c0,.87-.08,1.71-.15,2.54l-10.67,2.35c.08-.83.13-1.68.15-2.54" style="fill:#4e9cb8"/><path d="M246.24,157.42l10.67-2.35c-.08.77-.17,1.52-.29,2.25L246,159.67c.11-.74.2-1.49.28-2.25" style="fill:#4c98b3"/><path d="M246,159.67l10.66-2.35c-.1.69-.23,1.37-.38,2l-10.67,2.34c.15-.66.28-1.34.39-2" style="fill:#4a94ad"/><path d="M245.57,161.7l10.67-2.34c-.14.64-.3,1.28-.48,1.9l-10.67,2.34c.18-.62.34-1.25.48-1.9" style="fill:#488fa8"/><path d="M245.09,163.6l10.67-2.34c-.17.61-.37,1.22-.58,1.81l-10.66,2.35c.21-.6.4-1.2.57-1.82" style="fill:#468ba3"/><path d="M244.52,165.42l10.66-2.35q-.31.9-.69,1.77l-10.66,2.34c.24-.58.47-1.16.69-1.76" style="fill:#44879e"/><path d="M243.83,167.18l10.66-2.34c-.26.6-.54,1.2-.83,1.78L243,169c.3-.58.58-1.17.84-1.78" style="fill:#418299"/><path d="M243,169l10.67-2.34c-.33.63-.67,1.24-1,1.84L242,170.8c.37-.59.71-1.21,1-1.84" style="fill:#3f7e94"/><path d="M242,170.8l10.67-2.34c-.42.69-.88,1.36-1.36,2l-10.67,2.34c.48-.65.94-1.32,1.36-2" style="fill:#3d7a8f"/><path d="M240.59,172.81l10.67-2.34a27.59,27.59,0,0,1-2,2.44l-10.66,2.35a27.88,27.88,0,0,0,2-2.45" style="fill:#3b758a"/><path d="M238.55,175.26l10.66-2.35a30.67,30.67,0,0,1-2.4,2.29,32.78,32.78,0,0,1-14.47,7l-10.67,2.35a32.78,32.78,0,0,0,14.47-7,30.82,30.82,0,0,0,2.41-2.29" style="fill:#397185"/></g></g></g><polygon points="231.65 141.24 242.32 138.89 256.74 143.5 246.07 145.85 231.65 141.24" style="fill:#4c98b2"/><polygon points="246.07 145.85 256.74 143.5 256.82 144.56 246.15 146.91 246.07 145.85" style="fill:#59b1d0"/><polygon points="239.88 112.49 250.55 110.14 241.92 114.08 231.25 116.42 239.88 112.49" style="fill:#232c69"/><polygon points="242.66 114.51 253.33 112.17 238.93 118.73 228.26 121.08 242.66 114.51" style="fill:#376d80"/><polygon points="242.66 113.56 253.33 111.21 253.33 112.17 242.66 114.51 242.66 113.56" style="fill:#57adcb"/><path d="M211.32,82.77c18.93.73,28.29,10.46,28.57,29.72l-8.64,3.93c.07-1.79.1-3.26.11-4.39,0-15.62-6-23.76-17.75-24.22-12.6-.48-18.74,15.06-18.78,47.53,0,27.66,6.94,41.95,20.71,42.48,5.73.22,10.57-2.07,14.38-6.84s5.65-10.69,5.66-17.88a65.81,65.81,0,0,0-.6-7.71l8.47,2.7c.13,2.06.2,3.87.19,5.4,0,9.29-3,16.39-9.27,21.69s-14.72,7.77-25.27,7.36c-26.72-1-39.7-17.34-39.66-49.86,0-15.3,3.95-27.71,11.68-36.89S199,82.29,211.32,82.77Z" style="fill:#34419b"/><g style="isolation:isolate"><g style="clip-path:url(#ab)"><g style="isolation:isolate"><path d="M211.32,82.77,222,80.42c1.09,0,2.14.11,3.16.21L214.47,83q-1.53-.15-3.15-.21" style="fill:#2a347d"/><path d="M214.47,83l10.67-2.35c1.08.11,2.12.25,3.13.42L217.6,83.4c-1-.17-2-.31-3.13-.42" style="fill:#2b3682"/><path d="M217.6,83.4l10.67-2.35c.88.15,1.73.33,2.55.53l-10.67,2.34c-.82-.2-1.67-.37-2.55-.52" style="fill:#2d3886"/><path d="M220.15,83.92l10.67-2.34c.74.18,1.46.38,2.15.6l-10.66,2.34q-1-.33-2.16-.6" style="fill:#2e398a"/><path d="M222.31,84.52,233,82.18c.65.2,1.28.42,1.88.66l-10.66,2.34c-.61-.23-1.24-.45-1.88-.66" style="fill:#303b8e"/><path d="M224.19,85.18l10.66-2.34c.58.22,1.14.46,1.69.72l-10.67,2.35c-.55-.26-1.11-.5-1.68-.73" style="fill:#313d92"/><path d="M225.87,85.91l10.67-2.35c.53.25,1,.51,1.54.79L227.41,86.7c-.5-.28-1-.54-1.54-.79" style="fill:#323f96"/><path d="M227.41,86.7l10.67-2.35c.5.29,1,.58,1.47.9l-10.67,2.34c-.47-.31-1-.61-1.47-.89" style="fill:#34409b"/><path d="M228.88,87.59l10.67-2.34c.5.33,1,.68,1.46,1l-10.67,2.35c-.47-.37-1-.71-1.46-1" style="fill:#35429f"/><path d="M230.34,88.64,241,86.29c.53.42,1,.85,1.52,1.31L231.86,90c-.49-.46-1-.9-1.52-1.31" style="fill:#3744a3"/><path d="M231.86,90l10.67-2.35a22.85,22.85,0,0,1,1.78,1.9l-10.67,2.35a20,20,0,0,0-1.78-1.9" style="fill:#3846a7"/><path d="M233.64,91.85l10.67-2.35a24.65,24.65,0,0,1,4.41,8.24l-10.66,2.35a24.75,24.75,0,0,0-4.42-8.24" style="fill:#3947ab"/><path d="M238.06,100.09l10.66-2.35a33,33,0,0,1,1,3.8L239,103.89a37,37,0,0,0-1-3.8" style="fill:#3846a7"/><path d="M239,103.89l10.66-2.35c.23,1.14.41,2.33.55,3.57l-10.67,2.35c-.13-1.24-.32-2.43-.54-3.57" style="fill:#3744a3"/><path d="M239.58,107.46l10.67-2.35c.13,1.21.22,2.47.27,3.77l-10.67,2.34c0-1.3-.13-2.55-.27-3.76" style="fill:#35429f"/><path d="M239.85,111.22l10.67-2.34q0,.63,0,1.26l-10.66,2.35c0-.43,0-.85,0-1.27" style="fill:#34409b"/></g></g></g><g style="isolation:isolate"><g style="clip-path:url(#ac)"><g style="isolation:isolate"><path d="M200.15,80.71l10.67-2.35q1.19-.26,2.4-.45l-10.67,2.34c-.81.13-1.61.28-2.4.46" style="fill:#3b758a"/><path d="M202.55,80.25l10.67-2.34c1.32-.21,2.67-.35,4.05-.44L206.6,79.82c-1.38.08-2.73.23-4,.43" style="fill:#3d7a8f"/><path d="M206.6,79.82l10.67-2.35c1.29-.07,2.6-.1,3.93-.07l-10.67,2.35c-1.33,0-2.64,0-3.93.07" style="fill:#3f7e94"/><path d="M210.53,79.75,221.2,77.4l.79,0c1.13,0,2.22.12,3.29.22L214.62,80c-1.07-.11-2.17-.18-3.3-.23l-.79,0" style="fill:#418299"/><path d="M214.62,80l10.66-2.35c1.14.11,2.25.26,3.32.45l-10.66,2.34c-1.08-.18-2.18-.33-3.32-.44" style="fill:#44879e"/><path d="M217.94,80.44,228.6,78.1c1,.16,1.86.35,2.75.56L220.68,81c-.89-.22-1.8-.41-2.74-.57" style="fill:#468ba3"/><path d="M220.68,81l10.67-2.35c.81.2,1.59.42,2.35.66L223,81.66c-.76-.24-1.54-.46-2.35-.65" style="fill:#488fa8"/><path d="M223,81.66l10.67-2.34q1.06.33,2.07.72L225.1,82.39c-.67-.26-1.36-.5-2.07-.73" style="fill:#4a94ad"/><path d="M225.1,82.39,235.77,80c.63.25,1.25.52,1.85.8L227,83.19c-.6-.29-1.22-.55-1.85-.8" style="fill:#4c98b3"/><path d="M227,83.19l10.67-2.35c.59.28,1.17.57,1.73.89l-10.67,2.34c-.56-.31-1.14-.61-1.73-.88" style="fill:#4e9cb8"/><path d="M228.68,84.07l10.67-2.34c.56.31,1.12.65,1.65,1l-10.67,2.35c-.53-.35-1.08-.69-1.65-1" style="fill:#51a1bd"/><path d="M230.33,85.08,241,82.73c.56.37,1.11.76,1.63,1.17L232,86.25c-.52-.41-1.07-.8-1.63-1.17" style="fill:#53a5c2"/><path d="M232,86.25l10.67-2.35q.9.7,1.71,1.47l-10.67,2.35A22,22,0,0,0,232,86.25" style="fill:#55a9c7"/><path d="M233.67,87.72l10.67-2.35a23.6,23.6,0,0,1,2,2.19L235.72,89.9a23.49,23.49,0,0,0-2.05-2.18" style="fill:#57aecc"/><path d="M235.72,89.9l10.67-2.34a27.64,27.64,0,0,1,4.94,9.24l-10.67,2.35a27.59,27.59,0,0,0-4.94-9.25" style="fill:#59b2d1"/><path d="M240.66,99.15l10.67-2.35a36.64,36.64,0,0,1,1.08,4.16l-10.67,2.35a36.09,36.09,0,0,0-1.08-4.16" style="fill:#57aecc"/><path d="M241.74,103.31,252.41,101c.24,1.25.44,2.54.59,3.88l-10.67,2.35c-.15-1.34-.34-2.64-.59-3.88" style="fill:#55a9c7"/><path d="M242.33,107.19,253,104.84c.14,1.3.24,2.64.29,4l-10.67,2.34c-.05-1.38-.14-2.72-.29-4" style="fill:#53a5c2"/><path d="M242.62,111.21l10.67-2.34c0,.76,0,1.54,0,2.34l-10.67,2.35c0-.8,0-1.58,0-2.35" style="fill:#51a1bd"/></g></g></g><path d="M246.15,146.91c.18,2.58.27,4.82.27,6.68,0,10.1-3.48,18.16-10.28,24s-15.83,8.41-27,8c-28.19-1.08-42.47-18.9-42.43-53,0-16,4.17-29.12,12.37-38.83s19.1-14.47,32.28-14c20.82.81,31.37,12.18,31.34,33.79v1l-14.4,6.56.12-2.46c.13-2.87.2-5.12.21-6.69,0-13.82-4.89-20.72-15-21.11-10.58-.41-16,14.61-16,44.64,0,25.67,6,38.93,17.93,39.39,5,.19,9-1.73,12.26-5.85s5-9.52,5-16a78.55,78.55,0,0,0-.86-9.52l-.3-2.24,14.42,4.61Zm-11.78,28.27c6.23-5.3,9.26-12.4,9.27-21.69,0-1.53-.06-3.34-.19-5.4l-8.47-2.7a65.81,65.81,0,0,1,.6,7.71c0,7.19-1.91,13.2-5.66,17.88s-8.65,7.06-14.38,6.84c-13.77-.53-20.74-14.82-20.71-42.48,0-32.47,6.18-48,18.78-47.53,11.8.46,17.76,8.6,17.75,24.22,0,1.13,0,2.6-.11,4.39l8.64-3.93c-.28-19.26-9.64-29-28.57-29.72-12.35-.48-22.51,3.9-30.2,13s-11.66,21.59-11.68,36.89c0,32.52,12.94,48.83,39.66,49.86,10.55.41,19.05-2.07,25.27-7.36" style="fill:#51a1be"/></g></svg>