<svg xmlns="http://www.w3.org/2000/svg" xmlns:xlink="http://www.w3.org/1999/xlink" viewBox="0 0 428 281.11"><defs><clipPath id="a"><polygon points="392.18 15.38 392.5 179.93 251.55 158.05 247.91 1.1 392.18 15.38" style="fill:none"/></clipPath><clipPath id="b"><polygon points="270.2 60.72 273.87 243.39 123.57 215.68 116.16 42.32 270.2 60.72" style="fill:none"/></clipPath><clipPath id="c"><polygon points="270.2 60.72 392.18 15.38 392.5 179.93 273.87 243.39 270.2 60.72" style="fill:none"/></clipPath><clipPath id="d"><polygon points="273.87 243.39 123.57 215.68 251.55 158.05 392.5 179.93 273.87 243.39" style="fill:none"/></clipPath><clipPath id="e"><polygon points="123.57 215.68 116.16 42.32 247.91 1.1 251.55 158.05 123.57 215.68" style="fill:none"/></clipPath><clipPath id="f"><polygon points="116.16 42.32 247.91 1.1 392.18 15.38 270.2 60.72 116.16 42.32" style="fill:none"/></clipPath><clipPath id="g"><path d="M247.16.17,393,14.56l.31,166.35L250.85,158.76ZM392.5,179.93l-.32-164.55L247.91,1.1l3.64,157,141,21.88" style="fill:none"/></clipPath><clipPath id="h"><path d="M115.34,41.28,271.05,59.82l3.68,184.68L122.85,216.44ZM273.87,243.39,270.2,60.72l-154-18.4,7.41,173.36,150.3,27.71" style="fill:none"/></clipPath><clipPath id="i"><polygon points="115.34 41.28 247.16 0.17 392.99 14.56 271.05 59.82 115.34 41.28" style="fill:none"/></clipPath><clipPath id="j"><polygon points="271.05 59.82 392.99 14.56 393.3 180.91 274.73 244.5 271.05 59.82" style="fill:none"/></clipPath><clipPath id="k"><polygon points="274.73 244.5 122.85 216.44 250.85 158.76 393.3 180.91 274.73 244.5" style="fill:none"/></clipPath><clipPath id="l"><polygon points="122.85 216.44 115.34 41.28 247.16 0.17 250.85 158.76 122.85 216.44" style="fill:none"/></clipPath><clipPath id="m"><polygon points="273.87 243.39 270.2 60.72 392.18 15.38 392.5 179.93 273.87 243.39" style="fill:none"/></clipPath><clipPath id="n"><polygon points="270.2 60.72 116.16 42.32 247.91 1.1 392.18 15.38 270.2 60.72" style="fill:none"/></clipPath><clipPath id="o"><polygon points="116.16 42.32 247.91 1.1 251.55 158.05 123.57 215.68 116.16 42.32" style="fill:none"/></clipPath><clipPath id="p"><polygon points="123.57 215.68 251.55 158.05 392.5 179.93 273.87 243.39 123.57 215.68" style="fill:none"/></clipPath><clipPath id="q"><path d="M221.83,169.68,211.17,172a16.94,16.94,0,0,1-4.38.34L217.46,170A17.28,17.28,0,0,0,221.83,169.68Z" style="fill:none"/></clipPath><clipPath id="r"><path d="M220.83,121.87l-10.67,2.35a10.06,10.06,0,0,1-2.71.17l10.67-2.34A10.6,10.6,0,0,0,220.83,121.87Z" style="fill:none"/></clipPath><clipPath id="s"><path d="M218.12,125a13.14,13.14,0,0,0,3.38-.27l-10.66,2.34a13.7,13.7,0,0,1-3.39.28C210.65,126.68,214.85,125.33,218.12,125Z" style="fill:none"/></clipPath><clipPath id="t"><path d="M241.21,177.79l-10.67,2.35A49.43,49.43,0,0,1,218,181l10.67-2.34A49.93,49.93,0,0,0,241.21,177.79Z" style="fill:none"/></clipPath><clipPath id="u"><path d="M222.45,172.61,211.79,175c6-1.32,11.43-6.05,11.44-19,0-15.08-5.66-22.94-16.87-23.37L217,130.25c11.21.43,16.88,8.3,16.87,23.37C233.88,166.56,228.42,171.3,222.45,172.61Z" style="fill:none"/></clipPath><clipPath id="v"><path d="M221.51,124.77l-10.67,2.34c6.27-1.38,9.45-7.74,9.46-19L231,105.81C231,117,227.78,123.39,221.51,124.77Z" style="fill:none"/></clipPath><clipPath id="w"><path d="M206.82,89.29l10.67-2.35c6.15.24,13.5,3.7,13.48,18.87l-10.67,2.35C220.32,93,213,89.53,206.82,89.29Z" style="fill:none"/></clipPath><clipPath id="x"><path d="M252.56,115.49c-2.66,5.39-8,8.9-16.14,10.66l-10.66,2.35c8.13-1.76,13.47-5.28,16.13-10.67Z" style="fill:none"/></clipPath><clipPath id="y"><path d="M241.21,177.79l-10.67,2.35c11.54-2.54,17.19-10.12,17.2-22.94,0-13.59-7.15-22-22-25.78l10.67-2.35c14.79,3.75,22,12.19,22,25.79C258.4,167.67,252.75,175.25,241.21,177.79Z" style="fill:none"/></clipPath><clipPath id="z"><path d="M241.85,180.71l-10.67,2.34c12.83-2.82,19.33-11.44,19.34-25.74,0-13.4-6.44-22.55-19.2-27.26L242,127.7c12.76,4.71,19.22,13.86,19.2,27.26C261.18,169.26,254.68,177.88,241.85,180.71Z" style="fill:none"/></clipPath><clipPath id="aa"><path d="M252.56,115.49l-10.67,2.34a21.17,21.17,0,0,0,2-9.43c0-15.43-9.91-23.32-30.35-24.11L224.19,82c20.44.79,30.36,8.67,30.35,24.11A21.23,21.23,0,0,1,252.56,115.49Z" style="fill:none"/></clipPath><clipPath id="ab"><path d="M213.52,81.3,224.19,79c22,.85,33.14,10,33.13,27.21,0,10.7-5.17,17.93-15.33,21.54l-10.67,2.35c10.17-3.62,15.32-10.85,15.33-21.54C246.67,91.31,235.53,82.15,213.52,81.3Z" style="fill:none"/></clipPath></defs><title>medida2</title><g style="isolation:isolate"><g style="isolation:isolate"><g style="clip-path:url(#a)"><polygon points="392.18 15.38 392.5 179.93 251.55 158.05 247.91 1.1 392.18 15.38" style="fill:none;stroke:#000;stroke-miterlimit:10;stroke-width:0.25px"/></g></g><g style="isolation:isolate"><g style="clip-path:url(#b)"><polygon points="270.2 60.72 273.87 243.39 123.57 215.68 116.16 42.32 270.2 60.72" style="fill:none;stroke:#000;stroke-miterlimit:10;stroke-width:0.25px"/></g></g><g style="isolation:isolate"><g style="clip-path:url(#c)"><polygon points="270.2 60.72 392.18 15.38 392.5 179.93 273.87 243.39 270.2 60.72" style="fill:none;stroke:#000;stroke-miterlimit:10;stroke-width:0.25px"/></g></g><g style="isolation:isolate"><g style="clip-path:url(#d)"><polygon points="273.87 243.39 123.57 215.68 251.55 158.05 392.5 179.93 273.87 243.39" style="fill:none;stroke:#000;stroke-miterlimit:10;stroke-width:0.25px"/></g></g><g style="isolation:isolate"><g style="clip-path:url(#e)"><polygon points="123.57 215.68 116.16 42.32 247.91 1.1 251.55 158.05 123.57 215.68" style="fill:none;stroke:#000;stroke-miterlimit:10;stroke-width:0.25px"/></g></g><g style="isolation:isolate"><g style="clip-path:url(#f)"><polygon points="116.16 42.32 247.91 1.1 392.18 15.38 270.2 60.72 116.16 42.32" style="fill:none;stroke:#000;stroke-miterlimit:10;stroke-width:0.25px"/></g></g><g style="isolation:isolate"><g style="clip-path:url(#g)"><path d="M247.16.17,393,14.56l.31,166.35L250.85,158.76ZM392.5,179.93l-.32-164.55L247.91,1.1l3.64,157,141,21.88" style="fill:none;stroke:#000;stroke-miterlimit:10;stroke-width:0.25px"/></g></g><g style="isolation:isolate"><g style="clip-path:url(#h)"><path d="M115.34,41.28,271.05,59.82l3.68,184.68L122.85,216.44ZM273.87,243.39,270.2,60.72l-154-18.4,7.41,173.36,150.3,27.71" style="fill:none;stroke:#000;stroke-miterlimit:10;stroke-width:0.25px"/></g></g><g style="isolation:isolate"><g style="clip-path:url(#i)"><polygon points="115.34 41.28 247.16 0.17 392.99 14.56 271.05 59.82 115.34 41.28" style="fill:none;stroke:#000;stroke-miterlimit:10;stroke-width:0.25px"/></g></g><g style="isolation:isolate"><g style="clip-path:url(#j)"><polygon points="271.05 59.82 392.99 14.56 393.3 180.91 274.73 244.5 271.05 59.82" style="fill:none;stroke:#000;stroke-miterlimit:10;stroke-width:0.25px"/></g></g><g style="isolation:isolate"><g style="clip-path:url(#k)"><polygon points="274.73 244.5 122.85 216.44 250.85 158.76 393.3 180.91 274.73 244.5" style="fill:none;stroke:#000;stroke-miterlimit:10;stroke-width:0.25px"/></g></g><g style="isolation:isolate"><g style="clip-path:url(#l)"><polygon points="122.85 216.44 115.34 41.28 247.16 0.17 250.85 158.76 122.85 216.44" style="fill:none;stroke:#000;stroke-miterlimit:10;stroke-width:0.25px"/></g></g><g style="isolation:isolate"><g style="clip-path:url(#m)"><polygon points="273.87 243.39 270.2 60.72 392.18 15.38 392.5 179.93 273.87 243.39" style="fill:none;stroke:#000;stroke-miterlimit:10;stroke-width:0.25px"/></g></g><g style="isolation:isolate"><g style="clip-path:url(#n)"><polygon points="270.2 60.72 116.16 42.32 247.91 1.1 392.18 15.38 270.2 60.72" style="fill:none;stroke:#000;stroke-miterlimit:10;stroke-width:0.25px"/></g></g><g style="isolation:isolate"><g style="clip-path:url(#o)"><polygon points="116.16 42.32 247.91 1.1 251.55 158.05 123.57 215.68 116.16 42.32" style="fill:none;stroke:#000;stroke-miterlimit:10;stroke-width:0.25px"/></g></g><g style="isolation:isolate"><g style="clip-path:url(#p)"><polygon points="123.57 215.68 251.55 158.05 392.5 179.93 273.87 243.39 123.57 215.68" style="fill:none;stroke:#000;stroke-miterlimit:10;stroke-width:0.25px"/></g></g></g><line x1="282" y1="263.95" x2="401" y2="193.95" style="fill:none;stroke:#000"/><line x1="104" y1="214.95" x2="97" y2="46.95" style="fill:none;stroke:#000"/><line x1="111" y1="228.95" x2="271" y2="259.95" style="fill:none;stroke:#000"/><text transform="translate(133 275.86)" style="font-size:21px;font-family:MyriadPro-Regular, Myriad Pro">3.60 <tspan x="41.12" y="0" style="letter-spacing:-0.003999255952380952em">m</tspan><tspan x="58.55" y="0">t</tspan><tspan x="65.5" y="0" style="letter-spacing:-0.01097470238095238em">s</tspan><tspan x="73.58" y="0">.</tspan></text><text transform="translate(0 128.86)" style="font-size:21px;font-family:MyriadPro-Regular, Myriad Pro">2.40 <tspan x="41.12" y="0" style="letter-spacing:-0.003999255952380952em">m</tspan><tspan x="58.55" y="0">t</tspan><tspan x="65.5" y="0" style="letter-spacing:-0.01097470238095238em">s</tspan><tspan x="73.58" y="0">.</tspan></text><text transform="translate(347 249.36)" style="font-size:21px;font-family:MyriadPro-Regular, Myriad Pro">2.00 <tspan x="41.12" y="0" style="letter-spacing:-0.003999255952380952em">m</tspan><tspan x="58.55" y="0">t</tspan><tspan x="65.5" y="0" style="letter-spacing:-0.01097470238095238em">s</tspan><tspan x="73.58" y="0">.</tspan></text><g style="isolation:isolate"><polygon points="173.8 82.76 184.47 80.42 184.37 176.99 173.7 179.33 173.8 82.76" style="fill:#57adcb"/><polygon points="197.75 175.01 208.42 172.66 217.46 173.01 206.79 175.36 197.75 175.01" style="fill:#419951"/><polygon points="197.8 132.27 208.47 129.92 208.42 172.66 197.75 175.01 197.8 132.27" style="fill:#56cb6c"/><polygon points="200.53 172.12 211.2 169.78 217.46 170.02 206.79 172.37 200.53 172.12" style="fill:#418299"/><polygon points="200.57 135.36 211.24 133.01 211.2 169.78 200.53 172.12 200.57 135.36" style="fill:#57adcb"/><g style="isolation:isolate"><g style="clip-path:url(#q)"><g style="isolation:isolate"><path d="M206.79,172.36,217.46,170h.35l-10.67,2.35-.35,0" style="fill:#418299"/><path d="M207.14,172.38,217.81,170c.56,0,1.11,0,1.64,0l-10.67,2.35c-.53,0-1.08,0-1.64,0" style="fill:#3f7e94"/><path d="M208.78,172.35,219.45,170c.53,0,1-.09,1.54-.16l-10.67,2.34a15.11,15.11,0,0,1-1.54.17" style="fill:#3d7a8f"/><path d="M210.32,172.18,221,169.84l.84-.16L211.17,172a8,8,0,0,1-.85.16" style="fill:#3b758a"/></g></g></g><polygon points="197.8 132.27 208.47 129.92 217.03 130.25 206.36 132.6 197.8 132.27" style="fill:#418299"/><polygon points="173.7 179.33 184.37 176.99 228.7 178.7 218.03 181.04 173.7 179.33" style="fill:#418299"/><polygon points="197.85 88.94 208.51 86.6 208.47 124.67 197.81 127.02 197.85 88.94" style="fill:#56cb6c"/><polygon points="197.81 127.02 208.47 124.67 218.12 125.04 207.45 127.39 197.81 127.02" style="fill:#419951"/><polygon points="200.58 124.13 211.25 121.78 218.12 122.05 207.45 124.39 200.58 124.13" style="fill:#418299"/><polygon points="200.61 92.03 211.28 89.69 211.25 121.78 200.58 124.13 200.61 92.03" style="fill:#57adcb"/><g style="isolation:isolate"><g style="clip-path:url(#r)"><g style="isolation:isolate"><path d="M207.45,124.39l10.67-2.34h.43l-10.67,2.35-.43,0" style="fill:#418299"/><path d="M207.88,124.41l10.67-2.35c.29,0,.61,0,1,0l-10.67,2.34c-.36,0-.68,0-1,0" style="fill:#3f7e94"/><path d="M208.85,124.39l10.67-2.34.83-.09-10.67,2.34a6.36,6.36,0,0,1-.83.09" style="fill:#3d7a8f"/><path d="M209.68,124.3,220.35,122l.48-.09-10.67,2.34a4,4,0,0,1-.48.09" style="fill:#3b758a"/></g></g></g><g style="isolation:isolate"><g style="clip-path:url(#s)"><g style="isolation:isolate"><path d="M207.45,127.39,218.12,125h.25l-10.67,2.34h-.25" style="fill:#419952"/><path d="M207.7,127.39l10.67-2.34c.42,0,.83,0,1.23,0l-10.67,2.34c-.4,0-.81,0-1.23,0" style="fill:#3f944f"/><path d="M208.93,127.37,219.6,125c.42,0,.82-.07,1.22-.13l-10.67,2.34a11.69,11.69,0,0,1-1.22.13" style="fill:#3c8f4c"/><path d="M210.15,127.24l10.67-2.34.69-.13-10.67,2.34c-.23,0-.46.1-.69.13" style="fill:#3a8a49"/></g></g></g><polygon points="197.85 88.94 208.51 86.6 217.49 86.94 206.82 89.29 197.85 88.94" style="fill:#418299"/><g style="isolation:isolate"><g style="clip-path:url(#t)"><g style="isolation:isolate"><path d="M218,181l10.67-2.34,1.08,0-10.66,2.35L218,181" style="fill:#418299"/><path d="M219.12,181.08l10.66-2.35c1.74,0,3.4,0,5-.08L224.08,181c-1.57.09-3.23.12-5,.08" style="fill:#3f7e94"/><path d="M224.08,181l10.67-2.35q2.24-.14,4.26-.45l-10.67,2.35q-2,.31-4.26.45" style="fill:#3d7a8f"/><path d="M228.34,180.55,239,178.2c.76-.12,1.49-.25,2.2-.41l-10.67,2.35c-.71.15-1.44.29-2.2.41" style="fill:#3b758a"/></g></g></g><g style="isolation:isolate"><g style="clip-path:url(#u)"><g style="isolation:isolate"><path d="M206.36,132.6,217,130.25c.47,0,.93.05,1.39.1l-10.67,2.34c-.45,0-.92-.07-1.39-.09" style="fill:#418299"/><path d="M207.75,132.69l10.67-2.34c.5,0,1,.11,1.46.19l-10.67,2.35c-.47-.08-1-.15-1.46-.2" style="fill:#44879e"/><path d="M209.21,132.89l10.67-2.35c.43.07.85.16,1.25.26l-10.66,2.35c-.41-.1-.83-.19-1.26-.26" style="fill:#468ba3"/><path d="M210.47,133.15l10.66-2.35c.38.09.75.19,1.12.31l-10.67,2.34c-.36-.11-.74-.21-1.11-.3" style="fill:#488fa8"/><path d="M211.58,133.45l10.67-2.34,1,.35-10.67,2.35c-.33-.13-.67-.25-1-.36" style="fill:#4a94ad"/><path d="M212.59,133.81l10.67-2.35c.31.13.63.26.93.41l-10.67,2.34c-.3-.14-.61-.27-.93-.4" style="fill:#4c98b3"/><path d="M213.52,134.21l10.67-2.34a9.51,9.51,0,0,1,.9.46l-10.67,2.34c-.29-.16-.59-.31-.9-.46" style="fill:#4e9cb8"/><path d="M214.42,134.67l10.67-2.34c.3.17.59.34.88.53l-10.67,2.35c-.29-.19-.58-.37-.88-.54" style="fill:#51a1bd"/><path d="M215.3,135.21,226,132.86c.3.2.6.42.89.64l-10.67,2.35c-.29-.23-.59-.44-.89-.64" style="fill:#53a5c2"/><path d="M216.19,135.85l10.67-2.35a12.41,12.41,0,0,1,.95.82l-10.67,2.35a12.41,12.41,0,0,0-.95-.82" style="fill:#55a9c7"/><path d="M217.14,136.67l10.67-2.35a14.12,14.12,0,0,1,1.24,1.32L218.38,138a14.12,14.12,0,0,0-1.24-1.32" style="fill:#57aecc"/><path d="M218.38,138l10.67-2.35a18.51,18.51,0,0,1,3.28,6.21l-10.67,2.34a18.55,18.55,0,0,0-3.28-6.2" style="fill:#59b2d1"/><path d="M221.66,144.19l10.67-2.34a27.48,27.48,0,0,1,.81,3.16l-10.67,2.34a28,28,0,0,0-.81-3.16" style="fill:#57aecc"/><path d="M222.47,147.35,233.14,145c.2,1,.36,2,.48,3.11L223,150.46c-.12-1.08-.28-2.12-.48-3.11" style="fill:#55a9c7"/><path d="M223,150.46l10.67-2.34c.12,1.09.2,2.22.24,3.41l-10.67,2.35q-.06-1.78-.24-3.42" style="fill:#53a5c2"/><path d="M223.19,153.88l10.67-2.35c0,.68,0,1.38,0,2.09,0,.43,0,.85,0,1.27l-10.67,2.34c0-.41,0-.83,0-1.26,0-.71,0-1.41,0-2.09" style="fill:#51a1bd"/><path d="M223.21,157.23l10.67-2.34c0,.83-.07,1.63-.15,2.4l-10.66,2.35c.07-.77.12-1.57.14-2.41" style="fill:#4e9cb8"/><path d="M223.07,159.64l10.66-2.35c-.06.67-.14,1.31-.24,1.93l-10.66,2.35c.09-.62.17-1.26.24-1.93" style="fill:#4c98b3"/><path d="M222.83,161.57l10.66-2.35q-.12.84-.3,1.62l-10.67,2.35c.12-.52.22-1.06.31-1.62" style="fill:#4a94ad"/><path d="M222.52,163.19l10.67-2.35c-.11.49-.22.95-.35,1.4l-10.67,2.35c.13-.45.25-.92.35-1.4" style="fill:#488fa8"/><path d="M222.17,164.59l10.67-2.35c-.12.43-.25.84-.39,1.24l-10.67,2.34q.21-.58.39-1.23" style="fill:#468ba3"/><path d="M221.78,165.82l10.67-2.34c-.14.39-.29.77-.44,1.13L221.34,167c.15-.36.3-.73.44-1.13" style="fill:#44879e"/><path d="M221.34,167,232,164.61c-.16.37-.33.72-.5,1.06L220.84,168c.17-.33.34-.69.5-1.06" style="fill:#418299"/><path d="M220.84,168l10.67-2.34c-.19.35-.38.69-.58,1L220.27,169c.19-.32.39-.66.57-1" style="fill:#3f7e94"/><path d="M220.27,169l10.66-2.35c-.22.36-.45.7-.68,1l-10.67,2.35q.36-.48.69-1" style="fill:#3d7a8f"/><path d="M219.58,170.05l10.67-2.35c-.31.41-.63.79-1,1.15l-10.67,2.34a13.73,13.73,0,0,0,1-1.14" style="fill:#3b758a"/><path d="M218.62,171.19l10.67-2.34a13,13,0,0,1-6.84,3.76L211.79,175a13,13,0,0,0,6.83-3.77" style="fill:#397185"/></g></g></g><path d="M206.36,132.6c11.21.43,16.89,8.29,16.87,23.37,0,16.54-8.95,19.68-16.44,19.39l-9-.35.05-42.74Zm.43,39.76c9.18.36,13.66-5,13.67-16.5,0-13.28-4.6-19.91-14.1-20.28l-5.79-.22,0,36.76,6.26.24" style="fill:#51a1be"/><polygon points="173.8 82.76 184.47 80.42 224.19 81.95 213.52 84.29 173.8 82.76" style="fill:#419951"/><polygon points="171.04 79.66 181.71 77.31 224.19 78.95 213.52 81.3 171.04 79.66" style="fill:#418299"/><g style="isolation:isolate"><g style="clip-path:url(#v)"><g style="isolation:isolate"><path d="M220.3,108.16,231,105.81q0,.84,0,1.65l-10.66,2.35c0-.54,0-1.09,0-1.65" style="fill:#51a1bd"/><path d="M220.28,109.81l10.66-2.35c0,1-.08,2-.17,2.89L220.1,112.7c.09-.92.15-1.89.18-2.89" style="fill:#4e9cb8"/><path d="M220.1,112.7l10.67-2.35c-.07.78-.17,1.52-.28,2.23l-10.67,2.34c.12-.71.21-1.45.28-2.22" style="fill:#4c98b3"/><path d="M219.82,114.92l10.67-2.34q-.13.92-.33,1.77l-10.67,2.35c.13-.57.24-1.16.33-1.78" style="fill:#4a94ad"/><path d="M219.49,116.7l10.67-2.35c-.11.5-.23,1-.37,1.46l-10.66,2.34c.13-.47.25-1,.36-1.45" style="fill:#488fa8"/><path d="M219.13,118.15l10.66-2.34c-.12.43-.25.84-.39,1.24l-10.67,2.34c.14-.39.27-.81.4-1.24" style="fill:#468ba3"/><path d="M218.73,119.39l10.67-2.34c-.13.38-.28.74-.43,1.09l-10.66,2.35c.15-.36.29-.72.42-1.1" style="fill:#44879e"/><path d="M218.31,120.49,229,118.14c-.14.34-.3.67-.46,1l-10.67,2.35c.16-.32.32-.65.47-1" style="fill:#418299"/><path d="M217.84,121.48l10.67-2.35c-.17.32-.34.63-.52.93l-10.67,2.34c.18-.29.35-.6.52-.92" style="fill:#3f7e94"/><path d="M217.32,122.4,228,120.06c-.2.31-.4.62-.62.9l-10.67,2.35c.22-.29.42-.59.62-.91" style="fill:#3d7a8f"/><path d="M216.7,123.31,227.37,121a10.71,10.71,0,0,1-.8,1l-10.67,2.35a10.71,10.71,0,0,0,.8-1" style="fill:#3b758a"/><path d="M215.9,124.27l10.67-2.35a9.61,9.61,0,0,1-5.06,2.85l-10.67,2.34a9.66,9.66,0,0,0,5.06-2.84" style="fill:#397185"/></g></g></g><polygon points="225.76 128.5 236.42 126.15 236.46 129.07 225.79 131.42 225.76 128.5" style="fill:#56cc6d"/><g style="isolation:isolate"><g style="clip-path:url(#w)"><g style="isolation:isolate"><path d="M206.82,89.29l10.67-2.35c.33,0,.68,0,1,.07l-10.67,2.35c-.34,0-.68-.06-1-.07" style="fill:#418299"/><path d="M207.84,89.36,218.51,87q.56.06,1.11.15L209,89.51a10.56,10.56,0,0,0-1.11-.15" style="fill:#44879e"/><path d="M209,89.51l10.67-2.35c.32.06.65.12,1,.2l-10.67,2.35c-.32-.08-.65-.15-1-.2" style="fill:#468ba3"/><path d="M209.92,89.71l10.67-2.35c.29.07.59.15.88.24L210.8,90c-.29-.09-.58-.17-.88-.24" style="fill:#488fa8"/><path d="M210.8,90l10.67-2.35c.27.09.54.18.8.29L211.6,90.23l-.8-.28" style="fill:#4a94ad"/><path d="M211.6,90.23l10.67-2.34c.26.1.51.21.75.32l-10.66,2.35c-.25-.12-.5-.23-.76-.33" style="fill:#4c98b3"/><path d="M212.36,90.56,223,88.21l.73.37-10.67,2.35c-.24-.13-.48-.26-.72-.37" style="fill:#4e9cb8"/><path d="M213.08,90.93l10.67-2.35.72.44L213.8,91.37c-.23-.16-.48-.3-.72-.44" style="fill:#51a1bd"/><path d="M213.8,91.37,224.47,89l.74.53L214.54,91.9c-.24-.19-.49-.37-.74-.53" style="fill:#53a5c2"/><path d="M214.54,91.9l10.67-2.35c.27.22.54.45.8.7l-10.66,2.34a10.22,10.22,0,0,0-.81-.69" style="fill:#55a9c7"/><path d="M215.35,92.59,226,90.25a10.34,10.34,0,0,1,1,1.07l-10.67,2.34c-.32-.38-.66-.74-1-1.07" style="fill:#57aecc"/><path d="M216.35,93.66,227,91.32a15.26,15.26,0,0,1,2.69,5.09L219,98.76a15.21,15.21,0,0,0-2.69-5.1" style="fill:#59b2d1"/><path d="M219,98.76l10.67-2.35a23.09,23.09,0,0,1,.65,2.55L219.7,101.3a25.28,25.28,0,0,0-.66-2.54" style="fill:#57aecc"/><path d="M219.7,101.3,230.36,99c.16.78.29,1.61.39,2.5l-10.67,2.34c-.1-.88-.23-1.71-.38-2.5" style="fill:#55a9c7"/><path d="M220.08,103.8l10.67-2.34c.09.85.16,1.76.19,2.71l-10.67,2.35c0-1-.1-1.86-.19-2.72" style="fill:#53a5c2"/><path d="M220.27,106.52l10.67-2.35c0,.53,0,1.08,0,1.64l-10.67,2.35c0-.57,0-1.11,0-1.64" style="fill:#51a1bd"/></g></g></g><path d="M220.3,108.16c0,13.08-4.34,19.56-12.85,19.23l-9.64-.38,0-38.07,9,.35C213,89.53,220.32,93,220.3,108.16ZM200.61,92l0,32.1,6.87.26c2.49.1,10.06.39,10.08-16.34,0-13.77-6.11-15.6-10.72-15.78l-6.2-.24" style="fill:#51a1be"/><g style="isolation:isolate"><g style="clip-path:url(#x)"><g style="isolation:isolate"><path d="M242.26,117l10.67-2.34c-.16.36-.32.72-.5,1.06l-10.67,2.35c.18-.35.35-.7.5-1.07" style="fill:#419952"/><path d="M241.76,118.09l10.67-2.35c-.19.38-.4.74-.62,1.1l-10.67,2.35c.22-.36.43-.73.62-1.1" style="fill:#3f944f"/><path d="M241.14,119.19l10.67-2.35c-.25.41-.52.8-.8,1.18l-10.67,2.35c.29-.38.55-.78.8-1.18" style="fill:#3c8f4c"/><path d="M240.34,120.37,251,118a16.35,16.35,0,0,1-1.2,1.44l-10.67,2.34a16.22,16.22,0,0,0,1.2-1.43" style="fill:#3a8a49"/><path d="M239.14,121.8l10.67-2.34c-3,3.19-7.45,5.41-13.39,6.69l-10.66,2.35c5.93-1.28,10.37-3.5,13.38-6.7" style="fill:#388547"/></g></g></g><g style="isolation:isolate"><g style="clip-path:url(#y)"><g style="isolation:isolate"><path d="M225.79,131.42l10.67-2.35c1,.25,1.89.51,2.79.79l-10.67,2.35c-.9-.28-1.82-.55-2.79-.79" style="fill:#47a85a"/><path d="M228.58,132.21l10.67-2.35c.93.3,1.82.61,2.68.95l-10.67,2.34c-.86-.33-1.75-.65-2.68-.94" style="fill:#49ad5c"/><path d="M231.26,133.15l10.67-2.34c.79.3,1.55.63,2.28,1l-10.67,2.35c-.73-.34-1.49-.67-2.28-1" style="fill:#4cb35f"/><path d="M233.54,134.13l10.67-2.35q1,.5,2,1l-10.67,2.35q-.95-.54-2-1" style="fill:#4eb862"/><path d="M235.52,135.15l10.67-2.35c.62.35,1.21.71,1.79,1.08l-10.67,2.35c-.57-.38-1.17-.74-1.79-1.08" style="fill:#50bd65"/><path d="M237.31,136.23,248,133.88c.58.39,1.14.79,1.67,1.21L239,137.43c-.53-.41-1.09-.82-1.67-1.2" style="fill:#52c267"/><path d="M239,137.43l10.67-2.34c.58.45,1.14.92,1.66,1.41l-10.67,2.35c-.52-.49-1.08-1-1.66-1.42" style="fill:#54c76a"/><path d="M240.64,138.85l10.67-2.35a22.13,22.13,0,0,1,1.82,1.94l-10.67,2.35a22.13,22.13,0,0,0-1.82-1.94" style="fill:#56cc6d"/><path d="M242.46,140.79l10.67-2.35a21.27,21.27,0,0,1,4,7.26L246.43,148a21.41,21.41,0,0,0-4-7.25" style="fill:#59d170"/><path d="M246.43,148l10.66-2.34a24.94,24.94,0,0,1,.74,2.83l-10.67,2.34a27.23,27.23,0,0,0-.73-2.83" style="fill:#56cc6d"/><path d="M247.16,150.87l10.67-2.34c.16.8.29,1.64.38,2.49l-10.67,2.35c-.09-.86-.22-1.69-.38-2.5" style="fill:#54c76a"/><path d="M247.54,153.37,258.21,151c.09.8.15,1.61.18,2.45l-10.67,2.35c0-.84-.09-1.66-.18-2.45" style="fill:#52c267"/><path d="M247.72,155.82l10.67-2.35c0,.46,0,.92,0,1.39s0,.8,0,1.2l-10.66,2.35c0-.4,0-.8,0-1.21s0-.93,0-1.38" style="fill:#50bd65"/><path d="M247.73,158.41l10.66-2.35c0,.81-.07,1.6-.14,2.36l-10.67,2.35c.07-.77.12-1.55.15-2.36" style="fill:#4eb862"/><path d="M247.58,160.77l10.67-2.35c-.06.68-.14,1.33-.24,2l-10.67,2.35c.1-.64.18-1.3.24-2" style="fill:#4cb35f"/><path d="M247.34,162.74,258,160.39c-.1.59-.2,1.16-.32,1.72L247,164.45c.12-.55.23-1.13.32-1.71" style="fill:#49ad5c"/><path d="M247,164.45l10.67-2.34c-.12.51-.24,1-.38,1.51L246.64,166c.14-.49.26-1,.38-1.51" style="fill:#47a85a"/><path d="M246.64,166l10.67-2.34c-.14.47-.29.93-.44,1.38l-10.67,2.35c.16-.45.3-.92.44-1.39" style="fill:#45a357"/><path d="M246.2,167.35,256.87,165c-.16.45-.33.88-.52,1.31l-10.66,2.35c.18-.43.35-.87.51-1.31" style="fill:#439e54"/><path d="M245.69,168.66l10.66-2.35c-.18.43-.38.84-.58,1.25L245.1,169.9c.21-.4.4-.82.59-1.24" style="fill:#419952"/><path d="M245.1,169.9l10.67-2.34c-.23.43-.47.86-.72,1.27l-10.67,2.35c.25-.42.49-.84.72-1.28" style="fill:#3f944f"/><path d="M244.38,171.18l10.67-2.35c-.29.46-.59.91-.91,1.34l-10.67,2.34c.32-.43.63-.87.91-1.33" style="fill:#3c8f4c"/><path d="M243.47,172.51l10.67-2.34a15.81,15.81,0,0,1-1.29,1.53l-10.67,2.35a17.24,17.24,0,0,0,1.29-1.54" style="fill:#3a8a49"/><path d="M242.18,174.05l10.67-2.35a22,22,0,0,1-11.64,6.09l-10.67,2.35c5-1.1,8.84-3.12,11.64-6.09" style="fill:#388547"/></g></g></g><g style="isolation:isolate"><g style="clip-path:url(#z)"><g style="isolation:isolate"><path d="M231.32,130.05,242,127.7l.75.29-10.67,2.34-.75-.28" style="fill:#4a94ad"/><path d="M232.07,130.33,242.74,128c.85.33,1.66.68,2.45,1l-10.67,2.35c-.78-.38-1.6-.73-2.45-1.06" style="fill:#4c98b3"/><path d="M234.52,131.39,245.19,129c.75.35,1.48.73,2.18,1.12L236.7,132.5c-.7-.39-1.42-.76-2.18-1.11" style="fill:#4e9cb8"/><path d="M236.7,132.5l10.67-2.34q1,.57,2,1.2l-10.66,2.35c-.64-.42-1.3-.82-2-1.21" style="fill:#51a1bd"/><path d="M238.69,133.71l10.66-2.35c.66.43,1.28.88,1.88,1.35l-10.67,2.34c-.6-.46-1.22-.91-1.87-1.34" style="fill:#53a5c2"/><path d="M240.56,135.05l10.67-2.34c.65.5,1.27,1,1.86,1.58l-10.67,2.35q-.88-.82-1.86-1.59" style="fill:#55a9c7"/><path d="M242.42,136.64l10.67-2.35a25.92,25.92,0,0,1,2.1,2.23l-10.67,2.34a27.35,27.35,0,0,0-2.1-2.22" style="fill:#57aecc"/><path d="M244.52,138.86l10.67-2.34a24.76,24.76,0,0,1,4.51,8.24L249,147.11a24.53,24.53,0,0,0-4.51-8.25" style="fill:#59b2d1"/><path d="M249,147.11l10.67-2.35a28.48,28.48,0,0,1,.84,3.24l-10.66,2.35a29.54,29.54,0,0,0-.85-3.24" style="fill:#57aecc"/><path d="M249.88,150.35,260.54,148c.18.9.32,1.82.43,2.77l-10.67,2.34c-.1-.94-.25-1.86-.42-2.76" style="fill:#55a9c7"/><path d="M250.3,153.11,261,150.77c.1.87.16,1.77.2,2.69l-10.67,2.35c0-.92-.1-1.82-.2-2.7" style="fill:#53a5c2"/><path d="M250.5,155.81l10.67-2.35c0,.5,0,1,0,1.5s0,.88,0,1.31l-10.67,2.35c0-.43,0-.87,0-1.31s0-1,0-1.5" style="fill:#51a1bd"/><path d="M250.5,158.62l10.67-2.35c0,.89-.08,1.75-.16,2.59l-10.66,2.35c.07-.84.13-1.7.15-2.59" style="fill:#4e9cb8"/><path d="M250.35,161.21,261,158.86q-.11,1.13-.27,2.19l-10.67,2.34c.12-.71.21-1.43.28-2.18" style="fill:#4c98b3"/><path d="M250.07,163.39l10.67-2.34c-.1.65-.22,1.29-.36,1.91l-10.66,2.34c.13-.62.25-1.25.35-1.91" style="fill:#4a94ad"/><path d="M249.72,165.3,260.38,163c-.12.58-.26,1.14-.42,1.69L249.29,167c.16-.55.3-1.12.43-1.7" style="fill:#488fa8"/><path d="M249.29,167,260,164.65c-.15.54-.32,1.06-.5,1.57l-10.67,2.34c.18-.51.35-1,.5-1.56" style="fill:#468ba3"/><path d="M248.79,168.56l10.67-2.34c-.18.5-.37,1-.58,1.48l-10.67,2.35c.21-.49.4-1,.58-1.49" style="fill:#44879e"/><path d="M248.21,170.05l10.67-2.35c-.21.49-.43,1-.67,1.42l-10.67,2.35c.24-.46.46-.94.67-1.42" style="fill:#418299"/><path d="M247.54,171.47l10.67-2.35c-.25.5-.52,1-.81,1.45l-10.67,2.34q.44-.71.81-1.44" style="fill:#3f7e94"/><path d="M246.73,172.91l10.67-2.34c-.33.52-.67,1-1,1.52l-10.67,2.35a17.88,17.88,0,0,0,1-1.53" style="fill:#3d7a8f"/><path d="M245.69,174.44l10.67-2.35a20.2,20.2,0,0,1-1.46,1.75l-10.67,2.34a18.67,18.67,0,0,0,1.46-1.74" style="fill:#3b758a"/><path d="M244.23,176.18l10.67-2.34q-4.76,5-13.05,6.87l-10.67,2.34q8.3-1.81,13-6.87" style="fill:#397185"/></g></g></g><g style="isolation:isolate"><g style="clip-path:url(#aa)"><g style="isolation:isolate"><path d="M213.52,84.29,224.19,82c1.53.06,3,.16,4.42.3L218,84.59c-1.42-.14-2.9-.24-4.43-.3" style="fill:#419952"/><path d="M218,84.59l10.66-2.34c1.46.14,2.86.33,4.19.56l-10.66,2.34c-1.34-.23-2.73-.41-4.19-.56" style="fill:#439e54"/><path d="M222.14,85.15l10.66-2.34c1.09.18,2.14.4,3.14.64L225.28,85.8c-1-.25-2.06-.46-3.14-.65" style="fill:#45a357"/><path d="M225.28,85.8l10.66-2.35c.88.21,1.73.45,2.54.71L227.81,86.5c-.81-.25-1.66-.49-2.53-.7" style="fill:#47a85a"/><path d="M227.81,86.5l10.67-2.34c.73.23,1.43.47,2.11.74l-10.66,2.34c-.68-.26-1.39-.51-2.12-.74" style="fill:#49ad5c"/><path d="M229.93,87.24l10.66-2.34c.63.24,1.24.5,1.82.78L231.75,88c-.59-.28-1.2-.54-1.82-.79" style="fill:#4cb35f"/><path d="M231.75,88l10.66-2.35c.56.26,1.1.54,1.62.83l-10.67,2.34c-.52-.29-1.06-.56-1.61-.82" style="fill:#4eb862"/><path d="M233.36,88.85,244,86.51c.51.28,1,.58,1.47.89l-10.67,2.34c-.47-.31-1-.6-1.47-.89" style="fill:#50bd65"/><path d="M234.83,89.74,245.5,87.4c.48.32.94.65,1.39,1l-10.67,2.34c-.44-.34-.91-.68-1.39-1" style="fill:#52c267"/><path d="M236.22,90.74l10.67-2.34c.49.38,1,.78,1.39,1.19l-10.66,2.35c-.45-.42-.91-.82-1.4-1.2" style="fill:#54c76a"/><path d="M237.62,91.94l10.66-2.35a16.44,16.44,0,0,1,1.57,1.67L239.19,93.6a20.44,20.44,0,0,0-1.57-1.66" style="fill:#56cc6d"/><path d="M239.19,93.6l10.66-2.34a18.84,18.84,0,0,1,3.49,6.4L242.67,100a19.14,19.14,0,0,0-3.48-6.41" style="fill:#59d170"/><path d="M242.67,100l10.67-2.35a25,25,0,0,1,.66,2.55l-10.67,2.35a24.36,24.36,0,0,0-.66-2.55" style="fill:#56cc6d"/><path d="M243.33,102.56,254,100.21c.15.74.26,1.5.35,2.28l-10.67,2.35c-.09-.78-.2-1.54-.35-2.28" style="fill:#54c76a"/><path d="M243.68,104.84l10.67-2.35c.08.74.14,1.5.16,2.28l-10.66,2.35c0-.78-.09-1.54-.17-2.28" style="fill:#52c267"/><path d="M243.85,107.12l10.66-2.35q0,.63,0,1.29c0,.28,0,.56,0,.84l-10.66,2.35c0-.28,0-.56,0-.85s0-.86,0-1.28" style="fill:#50bd65"/><path d="M243.86,109.25l10.66-2.35c0,.57-.05,1.13-.1,1.68l-10.67,2.35c.05-.55.09-1.11.11-1.68" style="fill:#4eb862"/><path d="M243.75,110.93l10.67-2.35c0,.5-.11,1-.18,1.45l-10.67,2.35c.08-.48.14-1,.18-1.45" style="fill:#4cb35f"/><path d="M243.57,112.38,254.24,110q-.11.66-.24,1.29l-10.67,2.35q.13-.65.24-1.29" style="fill:#49ad5c"/><path d="M243.33,113.67,254,111.32c-.09.4-.19.8-.3,1.18L243,114.85c.11-.39.21-.78.3-1.18" style="fill:#47a85a"/><path d="M243,114.85l10.67-2.35c-.11.38-.22.75-.35,1.11L242.68,116c.13-.36.25-.73.35-1.11" style="fill:#45a357"/><path d="M242.68,116l10.67-2.35c-.13.36-.27.72-.42,1.07L242.26,117c.15-.34.29-.7.42-1.06" style="fill:#439e54"/><path d="M242.26,117l10.67-2.34c-.16.36-.32.72-.5,1.06l-10.67,2.35c.18-.35.35-.7.5-1.07" style="fill:#419952"/></g></g></g><path d="M225.79,131.42c14.8,3.74,22,12.19,22,25.78C247.73,174,238,181.82,218,181l-44.33-1.71.1-96.57,39.72,1.53c20.44.79,30.36,8.68,30.35,24.11,0,10.89-5.94,17.47-18.11,20.1Zm-19,43.94c7.49.29,16.42-2.85,16.44-19.39,0-15.08-5.66-22.94-16.87-23.37l-8.56-.33L197.75,175l9,.35m-8.94-86.42,0,38.07,9.64.38c8.51.33,12.84-6.15,12.85-19.23,0-15.17-7.33-18.63-13.48-18.87l-9-.35" style="fill:#50be65"/><g style="isolation:isolate"><g style="clip-path:url(#ab)"><g style="isolation:isolate"><path d="M213.52,81.3,224.19,79c1.55.06,3,.17,4.48.31L218,81.6c-1.44-.14-2.93-.24-4.48-.3" style="fill:#418299"/><path d="M218,81.6l10.67-2.34c1.51.15,3,.34,4.35.58l-10.67,2.34c-1.39-.23-2.84-.43-4.35-.58" style="fill:#44879e"/><path d="M222.35,82.18,233,79.84c1.17.2,2.3.43,3.38.69l-10.67,2.35c-1.08-.26-2.21-.5-3.38-.7" style="fill:#468ba3"/><path d="M225.73,82.88l10.67-2.35c.95.23,1.86.49,2.75.77l-10.67,2.34c-.88-.27-1.8-.53-2.75-.76" style="fill:#488fa8"/><path d="M228.48,83.64l10.67-2.34c.8.25,1.57.52,2.32.82l-10.66,2.34c-.75-.29-1.53-.56-2.33-.82" style="fill:#4a94ad"/><path d="M230.81,84.46l10.66-2.34c.7.27,1.38.56,2,.87l-10.67,2.34c-.65-.3-1.33-.59-2-.87" style="fill:#4c98b3"/><path d="M232.83,85.33,243.5,83c.62.29,1.22.6,1.8.92l-10.67,2.35c-.58-.33-1.18-.63-1.8-.93" style="fill:#4e9cb8"/><path d="M234.63,86.26l10.67-2.35c.58.32,1.13.66,1.66,1L236.3,87.27c-.54-.35-1.09-.69-1.67-1" style="fill:#51a1bd"/><path d="M236.3,87.27,247,84.92c.56.37,1.09.75,1.6,1.14l-10.67,2.35q-.76-.6-1.59-1.14" style="fill:#53a5c2"/><path d="M237.89,88.41l10.67-2.35c.56.44,1.09.9,1.6,1.38l-10.67,2.34c-.51-.48-1-.93-1.6-1.37" style="fill:#55a9c7"/><path d="M239.49,89.78l10.67-2.34a21.05,21.05,0,0,1,1.78,1.88l-10.67,2.35a22.63,22.63,0,0,0-1.78-1.89" style="fill:#57aecc"/><path d="M241.27,91.67l10.67-2.35a22.08,22.08,0,0,1,4,7.36L245.28,99a22,22,0,0,0-4-7.36" style="fill:#59b2d1"/><path d="M245.28,99,256,96.68a26.72,26.72,0,0,1,.76,2.93L246,102a26.15,26.15,0,0,0-.76-2.93" style="fill:#57aecc"/><path d="M246,102l10.67-2.35c.17.83.3,1.69.4,2.58l-10.67,2.34c-.1-.88-.23-1.74-.4-2.57" style="fill:#55a9c7"/><path d="M246.44,104.53l10.67-2.34c.09.82.15,1.67.18,2.54l-10.67,2.35q0-1.31-.18-2.55" style="fill:#53a5c2"/><path d="M246.62,107.08l10.67-2.35c0,.47,0,1,0,1.43,0,.32,0,.64,0,1l-10.67,2.35c0-.32,0-.63,0-.95,0-.48,0-1,0-1.43" style="fill:#51a1bd"/><path d="M246.63,109.46l10.67-2.35c0,.65-.06,1.28-.12,1.9l-10.66,2.34c0-.62.09-1.25.11-1.89" style="fill:#4e9cb8"/><path d="M246.52,111.35,257.18,109c-.05.56-.12,1.11-.2,1.64L246.31,113q.12-.81.21-1.65" style="fill:#4c98b3"/><path d="M246.31,113,257,110.65c-.08.5-.17,1-.28,1.48L246,114.47c.11-.48.2-1,.28-1.47" style="fill:#4a94ad"/><path d="M246,114.47l10.67-2.34c-.1.46-.21.91-.34,1.35l-10.67,2.35c.13-.44.24-.9.34-1.36" style="fill:#488fa8"/><path d="M245.69,115.83l10.67-2.35c-.13.44-.26.87-.41,1.29l-10.67,2.34c.15-.42.29-.84.41-1.28" style="fill:#468ba3"/><path d="M245.28,117.11,256,114.77c-.15.42-.31.83-.49,1.24l-10.66,2.35c.17-.41.33-.82.48-1.25" style="fill:#44879e"/><path d="M244.8,118.36,255.46,116c-.18.42-.37.84-.58,1.24l-10.67,2.35c.21-.41.4-.82.59-1.24" style="fill:#418299"/><path d="M244.21,119.6l10.67-2.35c-.22.43-.46.86-.72,1.27l-10.66,2.35c.25-.41.49-.84.71-1.27" style="fill:#3f7e94"/><path d="M243.5,120.87l10.66-2.35a15,15,0,0,1-.95,1.4l-10.66,2.35c.33-.45.65-.92.95-1.4" style="fill:#3d7a8f"/><path d="M242.55,122.27l10.66-2.35a19.32,19.32,0,0,1-1.37,1.65l-10.67,2.34a19.62,19.62,0,0,0,1.38-1.64" style="fill:#3b758a"/><path d="M241.17,123.91l10.67-2.34A24.52,24.52,0,0,1,242,127.7l-10.67,2.35a24.43,24.43,0,0,0,9.85-6.14" style="fill:#397185"/></g></g></g><path d="M231.32,130.05c12.76,4.71,19.22,13.86,19.2,27.26,0,18.56-11,27.55-32.5,26.72l-47.09-1.82L171,79.66l42.48,1.64c22,.85,33.15,10,33.13,27.21C246.64,119.2,241.49,126.43,231.32,130.05ZM218,181c20,.78,29.7-7,29.71-23.84,0-13.59-7.15-22-22-25.78l0-2.92c12.17-2.63,18.1-9.21,18.11-20.1,0-15.43-9.91-23.32-30.35-24.11L173.8,82.76l-.1,96.57L218,181" style="fill:#51a1be"/></g></svg>